<?xml version="1.0" encoding="utf-8"?>
<svg viewBox="0 0 512 512" width="800px" height="800px" xmlns="http://www.w3.org/2000/svg">
  <path d="M 251.589 74.419 C 174.531 74.479 99.132 126.193 69.889 163.441 C 1.447 250.619 -36.99 427.381 244.182 381.398 C 327.169 367.827 379.663 288.466 390.742 217.968 C 430.118 231.78 489.967 215.552 491.245 179.732 C 492.958 131.704 408.615 80.337 360.489 118.992 C 327.25 86.681 289.221 74.39 251.589 74.419 Z M 440.973 175.959 C 445.944 175.959 449.973 179.988 449.973 184.959 C 449.973 189.929 445.944 193.959 440.973 193.959 C 436.003 193.959 431.973 189.929 431.973 184.959 C 431.973 179.988 436.003 175.959 440.973 175.959 Z M 468.251 232.113 C 459.343 236.658 449.515 239.805 439.192 241.355 C 461.152 285.409 468.619 333.945 484.802 379.787 C 487.563 347.288 487.39 284.817 468.251 232.113 Z" style="" transform="matrix(1, 0, 0, 1, 0, 2.842170943040401e-14)"/>
</svg>