<?xml version="1.0" encoding="utf-8"?>
<svg viewBox="0 0 512 512" width="800px" height="800px" xmlns="http://www.w3.org/2000/svg">
  <path d="M 238.494 401.629 C 232.498 403.123 226.447 404.384 220.353 405.409 L 242.24 451.207 C 223.87 451.152 227.383 451.307 219.935 451.432 L 221.419 469.37 C 243.501 469.275 282.725 468.952 328.169 473.164 L 329.829 455.242 C 310.216 453.424 287.641 452.006 262.304 451.449 L 238.494 401.629 Z" style="transform-origin: 220.023px 384.334px;" transform="matrix(0.871689915657, -0.490057051182, 0.490057051182, 0.871689915657, 0.00001290709, -0.000027718113)"/>
  <path d="M 271.008 451.578 C 244.018 450.597 219.423 451.462 198.494 452.497 L 186.652 408.282 C 180.202 407.972 173.826 407.382 167.547 406.518 L 180.145 453.559 C 173.042 454.019 165.849 454.528 158.481 455.137 L 159.965 473.075 C 195.391 470.144 212.843 469.67 227.098 469.284 C 243.533 468.839 252.366 468.994 271.402 468.968 L 271.008 451.578 Z" style="transform-origin: 172.872px 388.743px;" transform="matrix(0.992979884148, 0.118285000324, -0.118285000324, 0.992979884148, -0.000011785951, -0.000023595125)"/>
</svg>