<?xml version="1.0" encoding="UTF-8"?>
<svg id="Layer_1" data-name="Layer 1" xmlns="http://www.w3.org/2000/svg" version="1.1" viewBox="0 0 800 800">
  <defs>
    <style>
      .cls-1 {
        fill: #000;
        stroke-width: 0px;
      }
    </style>
  </defs>
  <path class="cls-1" d="M370.2,627.2c-9.6.7-19.3,1.1-28.9,1l21.6,76.3c-28.3-4.9-22.9-3.8-34.4-5.5l-2.5,28c34,5.7,94.5,15.5,163.4,34l7.3-27.2c-29.7-8-64.1-16.1-103-23.7l-23.5-83Z"/>
  <path class="cls-1" d="M327.4,777.9c-28-31.6-55.4-58.5-79.2-81.1l37.3-61c-6.6-7.6-12.8-15.5-18.6-23.5l-39.7,64.9c-8.2-7.5-16.5-15.1-25.1-22.8l-18.7,21c41.5,36.9,60.8,56.2,76.6,71.9,18.2,18.1,27.6,28.3,48.1,49.8l19.3-19.2Z"/>
</svg>