<?xml version="1.0" encoding="iso-8859-1"?>
<!-- Uploaded to: SVG Repo, www.svgrepo.com, Generator: SVG Repo Mixer Tools -->
<svg fill="#000000" height="800px" width="800px" version="1.1" id="Capa_1" xmlns="http://www.w3.org/2000/svg" xmlns:xlink="http://www.w3.org/1999/xlink" 
	 viewBox="0 0 611.999 611.999" xml:space="preserve">
<g>
	<path d="M130.71,98.614c-5.384,0-9.749,4.365-9.749,9.749v227.625c1.348-2.581,2.718-5.173,4.127-7.788
		c14.38-26.675,28.885-49.416,38.119-63.246V108.363c0-5.384-4.365-9.749-9.749-9.749H130.71z"/>
	<path d="M227.014,0c-5.384,0-9.749,4.365-9.749,9.749V209.45c7.612-5.123,15.734-9.451,24.32-12.932
		c5.862-2.377,11.846-4.321,17.926-5.839V9.749c0-5.384-4.365-9.749-9.749-9.749H227.014z"/>
	<path d="M446.273,130.404c7.591,5.528,14.494,12,20.542,19.186V36.747c0-5.384-4.365-9.749-9.749-9.749h-22.748
		c-5.384,0-9.749,4.365-9.749,9.749v87.833c1.083-0.112,2.176-0.175,3.278-0.175C434.516,124.405,440.89,126.481,446.273,130.404z"
		/>
	<path d="M451.122,342.883c-7.745-3.541-15.671-6.871-23.216-11.088c-13.827-7.729-25.263-18.747-34.218-31.764
		c-13.522-19.656-17.988-48.272-37.478-62.938c-18.547-13.956-40.933-21.795-64.208-21.795c-10.974,0-21.949,1.703-32.493,5.109
		c-15.379,4.968-29.842,13.557-42.055,25.769l-0.191,0.191c-21.718,21.74-38.336,45.683-54.059,72.438
		c-9.13,15.537-18.944,33.496-27.746,52.28c-16.51,35.231-29.456,73.358-27.634,103.824c1.302,21.766,17.705,39.66,39.16,43.559
		c9.574,1.741,18.39,6.36,25.271,13.242l4.39,4.391l6.904,6.904l4.39,4.391c6.882,6.881,11.501,15.697,13.242,25.271
		c3.9,21.455,21.793,37.858,43.559,39.16c1.928,0.116,3.88,0.172,5.868,0.172c36.897-0.001,73.604-15.799,106.157-31.734
		c42.133-20.624,83.321-44.68,116.709-78.067c21.985-21.985,33.249-53.137,30.447-84.101c-1.696-18.749-7.532-37.768-19.636-52.439
		C475.188,354.628,463.384,348.49,451.122,342.883z"/>
	<path d="M429.907,154.787c-0.923-0.706-3.156-0.706-4.078,0c-20.86,15.972-35.579,41.123-35.579,69.426
		c0,29.06,14.186,54.802,36.007,70.693c0.421,0.305,2.487,0.305,2.908,0c21.821-15.89,36.115-41.633,36.115-70.693
		C465.28,195.911,450.767,170.759,429.907,154.787z"/>
</g>
</svg>