<?xml version="1.0" encoding="UTF-8" standalone="no"?>
<!-- Created with Inkscape (http://www.inkscape.org/) -->
<svg
   xmlns:dc="http://purl.org/dc/elements/1.1/"
   xmlns:cc="http://web.resource.org/cc/"
   xmlns:rdf="http://www.w3.org/1999/02/22-rdf-syntax-ns#"
   xmlns:svg="http://www.w3.org/2000/svg"
   xmlns="http://www.w3.org/2000/svg"
   xmlns:xlink="http://www.w3.org/1999/xlink"
   xmlns:sodipodi="http://sodipodi.sourceforge.net/DTD/sodipodi-0.dtd"
   xmlns:inkscape="http://www.inkscape.org/namespaces/inkscape"
   id="svg2211"
   sodipodi:version="0.32"
   inkscape:version="0.45.1"
   width="322"
   height="650"
   version="1.0"
   sodipodi:docbase="D:\svg\partenone"
   sodipodi:docname="Parthenon-top-view.svg"
   inkscape:output_extension="org.inkscape.output.svg.inkscape">
  <metadata
     id="metadata2216">
    <rdf:RDF>
      <cc:Work
         rdf:about="">
        <dc:format>image/svg+xml</dc:format>
        <dc:type
           rdf:resource="http://purl.org/dc/dcmitype/StillImage" />
        <cc:license
           rdf:resource="http://web.resource.org/cc/PublicDomain" />
        <dc:creator>
          <cc:Agent>
            <dc:title>Alessandro Argentini</dc:title>
          </cc:Agent>
        </dc:creator>
      </cc:Work>
      <cc:License
         rdf:about="http://web.resource.org/cc/PublicDomain">
        <cc:permits
           rdf:resource="http://web.resource.org/cc/Reproduction" />
        <cc:permits
           rdf:resource="http://web.resource.org/cc/Distribution" />
        <cc:permits
           rdf:resource="http://web.resource.org/cc/DerivativeWorks" />
      </cc:License>
    </rdf:RDF>
  </metadata>
  <defs
     id="defs2214" />
  <sodipodi:namedview
     inkscape:window-height="712"
     inkscape:window-width="1024"
     inkscape:pageshadow="2"
     inkscape:pageopacity="0.0"
     guidetolerance="10.0"
     gridtolerance="10.0"
     objecttolerance="10.0"
     borderopacity="1.0"
     bordercolor="#666666"
     pagecolor="#ffffff"
     id="base"
     inkscape:zoom="2"
     inkscape:cx="183.28845"
     inkscape:cy="227.7445"
     inkscape:window-x="-4"
     inkscape:window-y="-4"
     inkscape:current-layer="svg2211"
     height="650px"
     width="322px"
     showgrid="false" />
  <path
     sodipodi:type="arc"
     style="fill:#000000;fill-opacity:1;fill-rule:nonzero;stroke:none;stroke-width:1;stroke-linecap:square;stroke-linejoin:miter;stroke-miterlimit:4;stroke-dasharray:none;stroke-dashoffset:0;stroke-opacity:1"
     id="path2222"
     sodipodi:cx="115.95055"
     sodipodi:cy="52.481812"
     sodipodi:rx="7.8043637"
     sodipodi:ry="7.8043637"
     d="M 123.75491 52.481812 A 7.8043637 7.8043637 0 1 1  108.14618,52.481812 A 7.8043637 7.8043637 0 1 1  123.75491 52.481812 z"
     transform="translate(-60.507666,48.255813)"
     inkscape:tile-w="15.608727"
     inkscape:tile-h="15.608727"
     inkscape:tile-cx="50.449636"
     inkscape:tile-cy="46.349811" />
  <use
     x="0"
     y="0"
     xlink:href="#path2222"
     id="use2298"
     transform="translate(30.483725,0)"
     width="322"
     height="596" />
  <use
     x="0"
     y="0"
     xlink:href="#use2298"
     id="use2300"
     transform="translate(30.483721,0)"
     width="322"
     height="596" />
  <use
     x="0"
     y="0"
     xlink:href="#use2300"
     id="use2302"
     transform="translate(30.483721,0)"
     width="322"
     height="596" />
  <use
     x="0"
     y="0"
     xlink:href="#path2222"
     id="use2304"
     transform="translate(121.9349,0)"
     width="322"
     height="596" />
  <use
     x="0"
     y="0"
     xlink:href="#use2304"
     id="use2306"
     transform="translate(30.48372,0)"
     width="322"
     height="596" />
  <use
     x="0"
     y="0"
     xlink:href="#use2306"
     id="use2308"
     transform="translate(30.483721,0)"
     width="322"
     height="596" />
  <use
     x="0"
     y="0"
     xlink:href="#use2308"
     id="use2310"
     transform="translate(30.483721,0)"
     width="322"
     height="596" />
  <use
     x="0"
     y="0"
     xlink:href="#use2310"
     id="use2312"
     transform="translate(-1.9073486e-6,31.399665)"
     width="322"
     height="596" />
  <use
     x="0"
     y="0"
     xlink:href="#use2312"
     id="use2314"
     transform="translate(0,31.399739)"
     width="322"
     height="596" />
  <use
     x="0"
     y="0"
     xlink:href="#use2314"
     id="use2316"
     transform="translate(0,31.399714)"
     width="322"
     height="596" />
  <use
     x="0"
     y="0"
     xlink:href="#use2316"
     id="use2318"
     transform="translate(0,31.399738)"
     width="322"
     height="596" />
  <use
     x="0"
     y="0"
     xlink:href="#use2318"
     id="use2320"
     transform="translate(0,31.399722)"
     width="322"
     height="596" />
  <use
     x="0"
     y="0"
     xlink:href="#use2320"
     id="use2322"
     transform="translate(0,31.399692)"
     width="322"
     height="596" />
  <use
     x="0"
     y="0"
     xlink:href="#use2322"
     id="use2324"
     transform="translate(0,31.399719)"
     width="322"
     height="596" />
  <use
     x="0"
     y="0"
     xlink:href="#use2324"
     id="use2326"
     transform="translate(0,31.399722)"
     width="322"
     height="596" />
  <use
     x="0"
     y="0"
     xlink:href="#use2326"
     id="use2328"
     transform="translate(0,31.39973)"
     width="322"
     height="596" />
  <use
     x="0"
     y="0"
     xlink:href="#use2328"
     id="use2330"
     transform="translate(0,31.399708)"
     width="322"
     height="596" />
  <use
     x="0"
     y="0"
     xlink:href="#use2330"
     id="use2332"
     transform="translate(0,31.399712)"
     width="322"
     height="596" />
  <use
     x="0"
     y="0"
     xlink:href="#use2332"
     id="use2334"
     transform="translate(0,31.399727)"
     width="322"
     height="596" />
  <use
     x="0"
     y="0"
     xlink:href="#use2334"
     id="use2336"
     transform="translate(0,31.399707)"
     width="322"
     height="596" />
  <use
     x="0"
     y="0"
     xlink:href="#use2336"
     id="use2338"
     transform="translate(0,31.399726)"
     width="322"
     height="596" />
  <use
     x="0"
     y="0"
     xlink:href="#use2338"
     id="use2340"
     transform="translate(0,31.399715)"
     width="322"
     height="596" />
  <use
     x="0"
     y="0"
     xlink:href="#use2340"
     id="use2342"
     transform="translate(0,31.399719)"
     width="322"
     height="596" />
  <use
     x="0"
     y="0"
     xlink:href="#path2222"
     id="use2378"
     transform="translate(0,31.399686)"
     width="322"
     height="596" />
  <use
     x="0"
     y="0"
     xlink:href="#use2378"
     id="use2380"
     transform="translate(0,31.399726)"
     width="322"
     height="596" />
  <use
     x="0"
     y="0"
     xlink:href="#use2380"
     id="use2382"
     transform="translate(0,31.399705)"
     width="322"
     height="596" />
  <use
     x="0"
     y="0"
     xlink:href="#use2382"
     id="use2384"
     transform="translate(0,31.399736)"
     width="322"
     height="596" />
  <use
     x="0"
     y="0"
     xlink:href="#use2384"
     id="use2386"
     transform="translate(0,31.399715)"
     width="322"
     height="596" />
  <use
     x="0"
     y="0"
     xlink:href="#use2386"
     id="use2388"
     transform="translate(0,31.399705)"
     width="322"
     height="596" />
  <use
     x="0"
     y="0"
     xlink:href="#use2388"
     id="use2390"
     transform="translate(0,31.399717)"
     width="322"
     height="596" />
  <use
     x="0"
     y="0"
     xlink:href="#use2390"
     id="use2392"
     transform="translate(0,31.399734)"
     width="322"
     height="596" />
  <use
     x="0"
     y="0"
     xlink:href="#use2392"
     id="use2394"
     transform="translate(0,31.399717)"
     width="322"
     height="596" />
  <use
     x="0"
     y="0"
     xlink:href="#use2394"
     id="use2396"
     transform="translate(0,31.399715)"
     width="322"
     height="596" />
  <use
     x="0"
     y="0"
     xlink:href="#use2396"
     id="use2398"
     transform="translate(0,31.399716)"
     width="322"
     height="596" />
  <use
     x="0"
     y="0"
     xlink:href="#use2398"
     id="use2400"
     transform="translate(0,31.399715)"
     width="322"
     height="596" />
  <use
     x="0"
     y="0"
     xlink:href="#use2400"
     id="use2402"
     transform="translate(0,31.399721)"
     width="322"
     height="596" />
  <use
     x="0"
     y="0"
     xlink:href="#use2402"
     id="use3373"
     transform="translate(0,31.399709)"
     width="322"
     height="596" />
  <use
     x="0"
     y="0"
     xlink:href="#use3373"
     id="use3375"
     transform="translate(0,31.399717)"
     width="322"
     height="596" />
  <use
     x="0"
     y="0"
     xlink:href="#use3375"
     id="use3377"
     transform="translate(0,31.399721)"
     width="322"
     height="596" />
  <use
     x="0"
     y="0"
     xlink:href="#use3377"
     id="use3379"
     transform="translate(30.483718,0)"
     width="322"
     height="596" />
  <use
     x="0"
     y="0"
     xlink:href="#use3379"
     id="use3381"
     transform="translate(30.483726,0)"
     width="322"
     height="596" />
  <use
     x="0"
     y="0"
     xlink:href="#use3381"
     id="use3383"
     transform="translate(30.483722,0)"
     width="322"
     height="596" />
  <use
     x="0"
     y="0"
     xlink:href="#use3383"
     id="use3386"
     transform="translate(30.483726,0)"
     width="322"
     height="596" />
  <use
     x="0"
     y="0"
     xlink:href="#use3386"
     id="use3388"
     transform="translate(30.483726,0)"
     width="322"
     height="596" />
  <use
     x="0"
     y="0"
     xlink:href="#use3388"
     id="use3390"
     transform="translate(30.483717,0)"
     width="322"
     height="596" />
  <rect
     style="fill:none;fill-opacity:1;fill-rule:nonzero;stroke:#000000;stroke-width:1;stroke-linecap:square;stroke-linejoin:miter;stroke-miterlimit:4;stroke-dasharray:none;stroke-dashoffset:0;stroke-opacity:1"
     id="rect3393"
     width="250"
     height="539"
     x="37.136719"
     y="82.437386" />
  <rect
     style="fill:#000000;fill-opacity:1;fill-rule:nonzero;stroke:none;stroke-width:1;stroke-linecap:square;stroke-linejoin:miter;stroke-miterlimit:4;stroke-dasharray:none;stroke-dashoffset:0;stroke-opacity:1"
     id="rect6351"
     width="9.8561087"
     height="382.19333"
     x="83.378685"
     y="160.43721" />
  <rect
     style="fill:#000000;fill-opacity:1;fill-rule:nonzero;stroke:none;stroke-width:1;stroke-linecap:square;stroke-linejoin:miter;stroke-miterlimit:4;stroke-dasharray:none;stroke-dashoffset:0;stroke-opacity:1"
     id="rect6361"
     width="60.776634"
     height="17.238098"
     x="83.378685"
     y="172.74475" />
  <rect
     style="fill:#000000;fill-opacity:1;fill-rule:nonzero;stroke:none;stroke-width:1;stroke-linecap:square;stroke-linejoin:miter;stroke-miterlimit:4;stroke-dasharray:none;stroke-dashoffset:0;stroke-opacity:1"
     id="rect7453"
     width="143.28441"
     height="9.0661325"
     x="93.33625"
     y="286.91736" />
  <rect
     style="fill:none;fill-opacity:1;fill-rule:nonzero;stroke:#000000;stroke-width:1;stroke-linecap:square;stroke-linejoin:miter;stroke-miterlimit:4;stroke-dasharray:none;stroke-dashoffset:0;stroke-opacity:1"
     id="rect7458"
     width="49.893726"
     height="21.594"
     x="137.18987"
     y="362.32623" />
  <g
     id="g5262"
     transform="translate(8.5875816,5.9424934)">
    <text
       id="text2418"
       y="31.250002"
       x="24.984684"
       style="font-size:12px;font-style:normal;font-weight:normal;fill:#000000;fill-opacity:1;stroke:none;stroke-width:1px;stroke-linecap:butt;stroke-linejoin:miter;stroke-opacity:1;font-family:Bitstream Vera Sans"
       xml:space="preserve"><tspan
         id="tspan2422"
         y="31.250002"
         x="24.984684"
         sodipodi:role="line">0</tspan></text>
    <rect
       transform="matrix(0,-1,1,0,0,0)"
       y="29.159916"
       x="-36.425552"
       height="148.4012"
       width="1.5"
       id="rect2303"
       style="color:#000000;fill:#000000;fill-opacity:1;fill-rule:nonzero;stroke:none;stroke-width:1;stroke-linecap:square;stroke-linejoin:miter;marker:none;marker-start:none;marker-mid:none;marker-end:none;stroke-miterlimit:4;stroke-dasharray:none;stroke-dashoffset:0;stroke-opacity:1;visibility:visible;display:inline;overflow:visible" />
    <rect
       y="32.892853"
       x="28.049137"
       height="3.5326984"
       width="1.5"
       id="rect2305"
       style="color:#000000;fill:#000000;fill-opacity:1;fill-rule:nonzero;stroke:none;stroke-width:1;stroke-linecap:square;stroke-linejoin:miter;marker:none;marker-start:none;marker-mid:none;marker-end:none;stroke-miterlimit:4;stroke-dasharray:none;stroke-dashoffset:0;stroke-opacity:1;visibility:visible;display:inline;overflow:visible" />
    <rect
       y="32.892853"
       x="65.111641"
       height="3.5326984"
       width="1.5"
       id="rect2307"
       style="color:#000000;fill:#000000;fill-opacity:1;fill-rule:nonzero;stroke:none;stroke-width:1;stroke-linecap:square;stroke-linejoin:miter;marker:none;marker-start:none;marker-mid:none;marker-end:none;stroke-miterlimit:4;stroke-dasharray:none;stroke-dashoffset:0;stroke-opacity:1;visibility:visible;display:inline;overflow:visible" />
    <rect
       y="32.892853"
       x="102.17414"
       height="3.5326984"
       width="1.5"
       id="rect2309"
       style="color:#000000;fill:#000000;fill-opacity:1;fill-rule:nonzero;stroke:none;stroke-width:1;stroke-linecap:square;stroke-linejoin:miter;marker:none;marker-start:none;marker-mid:none;marker-end:none;stroke-miterlimit:4;stroke-dasharray:none;stroke-dashoffset:0;stroke-opacity:1;visibility:visible;display:inline;overflow:visible" />
    <rect
       y="32.892853"
       x="139.23663"
       height="3.5326984"
       width="1.5"
       id="rect2311"
       style="color:#000000;fill:#000000;fill-opacity:1;fill-rule:nonzero;stroke:none;stroke-width:1;stroke-linecap:square;stroke-linejoin:miter;marker:none;marker-start:none;marker-mid:none;marker-end:none;stroke-miterlimit:4;stroke-dasharray:none;stroke-dashoffset:0;stroke-opacity:1;visibility:visible;display:inline;overflow:visible" />
    <rect
       y="32.892853"
       x="176.29913"
       height="3.5326984"
       width="1.5"
       id="rect2313"
       style="color:#000000;fill:#000000;fill-opacity:1;fill-rule:nonzero;stroke:none;stroke-width:1;stroke-linecap:square;stroke-linejoin:miter;marker:none;marker-start:none;marker-mid:none;marker-end:none;stroke-miterlimit:4;stroke-dasharray:none;stroke-dashoffset:0;stroke-opacity:1;visibility:visible;display:inline;overflow:visible" />
    <text
       id="text2426"
       y="31.368164"
       x="62.105778"
       style="font-size:12px;font-style:normal;font-weight:normal;fill:#000000;fill-opacity:1;stroke:none;stroke-width:1px;stroke-linecap:butt;stroke-linejoin:miter;stroke-opacity:1;font-family:Bitstream Vera Sans"
       xml:space="preserve"><tspan
         id="tspan2428"
         y="31.368164"
         x="62.105778"
         sodipodi:role="line">5</tspan></text>
    <text
       id="text2430"
       y="31.164063"
       x="95.025703"
       style="font-size:12px;font-style:normal;font-weight:normal;fill:#000000;fill-opacity:1;stroke:none;stroke-width:1px;stroke-linecap:butt;stroke-linejoin:miter;stroke-opacity:1;font-family:Bitstream Vera Sans"
       xml:space="preserve"><tspan
         id="tspan2432"
         y="31.164063"
         x="95.025703"
         sodipodi:role="line">10</tspan></text>
    <text
       id="text2434"
       y="30.868164"
       x="132.21417"
       style="font-size:12px;font-style:normal;font-weight:normal;fill:#000000;fill-opacity:1;stroke:none;stroke-width:1px;stroke-linecap:butt;stroke-linejoin:miter;stroke-opacity:1;font-family:Bitstream Vera Sans"
       xml:space="preserve"><tspan
         id="tspan2436"
         y="30.868164"
         x="132.21417"
         sodipodi:role="line">15</tspan></text>
    <text
       id="text2438"
       y="31.243164"
       x="169.37042"
       style="font-size:12px;font-style:normal;font-weight:normal;fill:#000000;fill-opacity:1;stroke:none;stroke-width:1px;stroke-linecap:butt;stroke-linejoin:miter;stroke-opacity:1;font-family:Bitstream Vera Sans"
       xml:space="preserve"><tspan
         id="tspan2440"
         y="31.243164"
         x="169.37042"
         sodipodi:role="line">20 m</tspan></text>
  </g>
  <path
     sodipodi:type="arc"
     style="fill:#000000;fill-opacity:1;fill-rule:nonzero;stroke:none;stroke-width:15;stroke-linecap:butt;stroke-linejoin:miter;stroke-miterlimit:4;stroke-dasharray:none;stroke-dashoffset:0;stroke-opacity:1"
     id="path4185"
     sodipodi:cx="-74.75"
     sodipodi:cy="272.25"
     sodipodi:rx="4.75"
     sodipodi:ry="4.75"
     d="M -70 272.25 A 4.75 4.75 0 1 1  -79.5,272.25 A 4.75 4.75 0 1 1  -70 272.25 z"
     transform="translate(196.33758,50.317485)" />
  <use
     x="0"
     y="0"
     xlink:href="#path4185"
     id="use5158"
     transform="translate(20.125,0)"
     width="322"
     height="650" />
  <use
     x="0"
     y="0"
     xlink:href="#use5158"
     id="use5160"
     transform="translate(20.125,0)"
     width="322"
     height="650" />
  <use
     x="0"
     y="0"
     xlink:href="#use5160"
     id="use5162"
     transform="translate(20.125,0)"
     width="322"
     height="650" />
  <use
     x="0"
     y="0"
     xlink:href="#use5162"
     id="use5164"
     transform="translate(20.125,-7.6293945e-6)"
     width="322"
     height="650" />
  <use
     x="0"
     y="0"
     xlink:href="#use5164"
     id="use5166"
     transform="translate(0,19.417084)"
     width="322"
     height="650" />
  <use
     x="0"
     y="0"
     xlink:href="#use5166"
     id="use5168"
     transform="translate(0,19.417077)"
     width="322"
     height="650" />
  <use
     x="0"
     y="0"
     xlink:href="#use5168"
     id="use5170"
     transform="translate(0,19.417076)"
     width="322"
     height="650" />
  <use
     x="0"
     y="0"
     xlink:href="#use5170"
     id="use5172"
     transform="translate(0,19.417076)"
     width="322"
     height="650" />
  <use
     x="0"
     y="0"
     xlink:href="#use5172"
     id="use5174"
     transform="translate(0,19.417076)"
     width="322"
     height="650" />
  <use
     x="0"
     y="0"
     xlink:href="#use5174"
     id="use5176"
     transform="translate(0,19.417076)"
     width="322"
     height="650" />
  <use
     x="0"
     y="0"
     xlink:href="#use5176"
     id="use5178"
     transform="translate(0,19.417076)"
     width="322"
     height="650" />
  <use
     x="0"
     y="0"
     xlink:href="#use5178"
     id="use5180"
     transform="translate(0,19.417076)"
     width="322"
     height="650" />
  <use
     x="0"
     y="0"
     xlink:href="#use5180"
     id="use5182"
     transform="translate(0,19.417079)"
     width="322"
     height="650" />
  <use
     x="0"
     y="0"
     xlink:href="#use5166"
     id="use5184"
     transform="translate(-80.5,1.8554707e-8)"
     width="322"
     height="650" />
  <use
     x="0"
     y="0"
     xlink:href="#use5168"
     id="use5186"
     transform="translate(-80.5,0)"
     width="322"
     height="650" />
  <use
     x="0"
     y="0"
     xlink:href="#use5170"
     id="use5188"
     transform="translate(-80.5,0)"
     width="322"
     height="650" />
  <use
     x="0"
     y="0"
     xlink:href="#use5172"
     id="use5190"
     transform="translate(-80.5,-1.3964844e-8)"
     width="322"
     height="650" />
  <use
     x="0"
     y="0"
     xlink:href="#use5174"
     id="use5192"
     transform="translate(-80.5,-2.4804687e-8)"
     width="322"
     height="650" />
  <use
     x="0"
     y="0"
     xlink:href="#use5176"
     id="use5194"
     transform="translate(-80.5,-3.5644531e-8)"
     width="322"
     height="650" />
  <use
     x="0"
     y="0"
     xlink:href="#use5178"
     id="use5196"
     transform="translate(-80.5,-4.6484375e-8)"
     width="322"
     height="650" />
  <use
     x="0"
     y="0"
     xlink:href="#use5180"
     id="use5198"
     transform="translate(-80.5,4.2675781e-8)"
     width="322"
     height="650" />
  <use
     x="0"
     y="0"
     xlink:href="#use5182"
     id="use5200"
     transform="translate(-80.5,0)"
     width="322"
     height="650" />
  <rect
     style="fill:none;fill-opacity:1;fill-rule:nonzero;stroke:#000000;stroke-width:1;stroke-linecap:square;stroke-linejoin:miter;stroke-miterlimit:4;stroke-dasharray:none;stroke-dashoffset:0;stroke-opacity:1"
     id="rect5580"
     width="165"
     height="445"
     x="80.386353"
     y="130.2728" />
  <rect
     style="fill:none;fill-opacity:1;fill-rule:nonzero;stroke:#000000;stroke-width:1;stroke-linecap:square;stroke-linejoin:miter;stroke-miterlimit:4;stroke-dasharray:none;stroke-dashoffset:0;stroke-opacity:1"
     id="rect5582"
     width="240"
     height="529"
     x="42.136719"
     y="87.437386" />
  <rect
     style="fill:none;fill-opacity:1;fill-rule:nonzero;stroke:#000000;stroke-width:1;stroke-linecap:square;stroke-linejoin:miter;stroke-miterlimit:4;stroke-dasharray:none;stroke-dashoffset:0;stroke-opacity:1"
     id="rect5584"
     width="230"
     height="519"
     x="47.136719"
     y="92.437386" />
  <rect
     style="fill:none;fill-opacity:1;fill-rule:nonzero;stroke:#000000;stroke-width:1;stroke-linecap:square;stroke-linejoin:miter;stroke-miterlimit:4;stroke-dasharray:none;stroke-dashoffset:0;stroke-opacity:1"
     id="rect6555"
     width="160"
     height="440"
     x="82.886353"
     y="132.7728" />
  <path
     sodipodi:type="arc"
     style="fill:#000000;fill-opacity:1;fill-rule:nonzero;stroke:none;stroke-width:15;stroke-linecap:butt;stroke-linejoin:miter;stroke-miterlimit:4;stroke-dasharray:none;stroke-dashoffset:0;stroke-opacity:1"
     id="path6557"
     sodipodi:cx="224.8125"
     sodipodi:cy="129.625"
     sodipodi:rx="6.625"
     sodipodi:ry="6.625"
     d="M 231.4375 129.625 A 6.625 6.625 0 1 1  218.1875,129.625 A 6.625 6.625 0 1 1  231.4375 129.625 z"
     transform="translate(-134.8004,436.01938)" />
  <use
     x="0"
     y="0"
     xlink:href="#path6557"
     id="use7528"
     transform="translate(29.148456,0)"
     width="322"
     height="650" />
  <use
     x="0"
     y="0"
     xlink:href="#use7528"
     id="use7530"
     transform="translate(29.148454,0)"
     width="322"
     height="650" />
  <use
     x="0"
     y="0"
     xlink:href="#use7530"
     id="use7532"
     transform="translate(29.148465,0)"
     width="322"
     height="650" />
  <use
     x="0"
     y="0"
     xlink:href="#use7532"
     id="use7534"
     transform="translate(29.148454,0)"
     width="322"
     height="650" />
  <use
     x="0"
     y="0"
     xlink:href="#use7534"
     id="use7536"
     transform="translate(29.148459,0)"
     width="322"
     height="650" />
  <use
     x="0"
     y="0"
     xlink:href="#path6557"
     id="use7542"
     transform="translate(0,-425.74609)"
     width="322"
     height="650" />
  <use
     x="0"
     y="0"
     xlink:href="#use7528"
     id="use7544"
     transform="translate(0,-425.74609)"
     width="322"
     height="650" />
  <use
     x="0"
     y="0"
     xlink:href="#use7530"
     id="use7546"
     transform="translate(0,-425.74609)"
     width="322"
     height="650" />
  <use
     x="0"
     y="0"
     xlink:href="#use7532"
     id="use7548"
     transform="translate(0,-425.74609)"
     width="322"
     height="650" />
  <use
     x="0"
     y="0"
     xlink:href="#use7534"
     id="use7550"
     transform="translate(0,-425.74609)"
     width="322"
     height="650" />
  <use
     x="0"
     y="0"
     xlink:href="#use7536"
     id="use7552"
     transform="translate(0,-425.74609)"
     width="322"
     height="650" />
  <rect
     style="fill:#000000;fill-opacity:1;fill-rule:nonzero;stroke:none;stroke-width:1;stroke-linecap:square;stroke-linejoin:miter;stroke-miterlimit:4;stroke-dasharray:none;stroke-dashoffset:0;stroke-opacity:1"
     id="rect2503"
     width="9.8561087"
     height="382.19333"
     x="-242.38396"
     y="160.43721"
     transform="scale(-1,1)" />
  <path
     sodipodi:type="arc"
     style="fill:#000000;fill-opacity:1;fill-rule:nonzero;stroke:none;stroke-width:15;stroke-linecap:butt;stroke-linejoin:miter;stroke-miterlimit:4;stroke-dasharray:none;stroke-dashoffset:0;stroke-opacity:1"
     id="path2509"
     sodipodi:cx="181.3125"
     sodipodi:cy="217.9375"
     sodipodi:rx="7.3125"
     sodipodi:ry="7.3125"
     d="M 188.625 217.9375 A 7.3125 7.3125 0 1 1  174,217.9375 A 7.3125 7.3125 0 1 1  188.625 217.9375 z"
     transform="translate(5.9492187,3.3174934)" />
  <use
     x="0"
     y="0"
     xlink:href="#path2509"
     id="use2513"
     transform="translate(-50.25,0)"
     width="322"
     height="650" />
  <use
     x="0"
     y="0"
     xlink:href="#use2513"
     id="use2515"
     transform="translate(0,35.375)"
     width="322"
     height="650" />
  <use
     x="0"
     y="0"
     xlink:href="#use2515"
     id="use2517"
     transform="translate(50.25,0)"
     width="322"
     height="650" />
  <use
     x="0"
     y="0"
     xlink:href="#rect6361"
     id="use2532"
     transform="translate(0,340.20675)"
     width="322"
     height="650" />
  <use
     x="0"
     y="0"
     xlink:href="#rect6361"
     id="use2537"
     transform="translate(98.22863,0)"
     width="322"
     height="650" />
  <use
     x="0"
     y="0"
     xlink:href="#use2537"
     id="use2539"
     transform="translate(0,340.20675)"
     width="322"
     height="650" />
  <rect
     style="fill:#000000;fill-opacity:1;fill-rule:nonzero;stroke:none;stroke-width:15;stroke-linecap:butt;stroke-linejoin:miter;stroke-miterlimit:4;stroke-dasharray:none;stroke-dashoffset:0;stroke-opacity:1"
     id="rect2544"
     width="9.3691645"
     height="4.5961943"
     x="116.90298"
     y="510.80884" />
  <use
     x="0"
     y="0"
     xlink:href="#rect2544"
     id="use2546"
     transform="translate(80.500011,0)"
     width="322"
     height="650" />
</svg>
