<svg width="176" height="110" viewBox="0 0 176 110" fill="none" xmlns="http://www.w3.org/2000/svg">
<path d="M39.2273 40.7954V30.9091L51.0909 32.2273V37.0386M51.0909 42.1136V37.0386M51.0909 37.0386L42.5227 36.1818M42.5227 36.1818V45.4091M42.5227 36.1818L55.7046 37.5V47.3863" stroke="black" stroke-width="1.31818" stroke-linejoin="round"/>
<path d="M117.987 59.5412C117.872 59.542 117.757 59.5465 117.643 59.5538C116.017 59.6582 114.605 60.3911 113.888 61.7423L115.315 62.757H112.942C112.106 62.3314 112.976 62.7354 112.021 62.3295C110.146 61.2673 108.071 61.5489 106.576 62.5571C104.952 63.6524 104.088 65.4562 104.937 67.4226L105.187 68.002L104.663 68.351C102.928 69.5136 101.992 70.8118 101.657 72.2475C101.323 73.6836 101.591 75.3231 102.51 77.174L102.71 77.5813L102.447 77.9508C101.33 79.5199 101.728 81.0816 102.93 82.0825C103.743 82.7597 104.507 82.8907 105.331 82.6822C106.155 82.4738 107.044 81.8604 107.819 80.9111L108.034 80.648L108.37 80.6329C110.615 80.5357 112.393 79.6908 113.549 78.3885C114.706 77.0862 115.267 75.3134 114.984 73.2143L114.9 72.5994L115.487 72.397C116.14 72.1729 116.68 71.7371 117.011 71.1396L117.438 70.3652L118.137 70.9093C118.654 71.3122 119.998 71.5892 120.677 71.3925L121.509 71.1521L121.636 72.0099C121.984 74.3872 123.611 76.2634 125.689 76.8804L126.357 77.0778L126.215 77.7609C125.959 78.9746 126.336 79.8721 127.061 80.4657C127.784 81.0593 128.906 81.3306 130.198 80.9869L130.701 80.8529L131.008 81.2779C132.102 82.8037 133.432 83.552 134.76 83.6714C136.087 83.7909 137.455 83.2873 138.649 82.085C139.671 81.0554 139.997 79.9386 139.868 78.811C139.739 77.6831 139.114 76.5342 138.107 75.6101L137.419 74.9776L138.18 74.4361C138.818 73.9827 139.05 73.1472 138.902 72.3715C138.753 71.5958 138.292 71.0212 137.578 70.9319L136.819 70.8382L136.923 70.0792C137.396 66.6327 135.82 63.7923 133.252 62.1724C130.683 60.5522 127.125 60.1898 123.634 61.9218L123.09 62.1925L122.708 61.7168C121.618 60.3569 119.954 59.6305 118.334 59.5484C118.218 59.5425 118.102 59.5399 117.987 59.5408L117.987 59.5412ZM117.888 72.5209C117.564 72.9098 117.171 73.2272 116.735 73.4748C117.704 75.903 118.259 78.3962 118.6 81.0477C118.231 81.9576 117.816 82.8598 117.345 83.755L117.332 83.7602C116.64 82.1783 115.869 80.606 114.807 79.2463C114.765 79.2955 114.723 79.3449 114.68 79.393C114.386 79.724 114.061 80.0276 113.709 80.3039C114.683 81.5886 115.413 83.1239 116.115 84.752C116.74 88.2651 116.632 92.1415 115.89 95.6672C113.726 96.0779 111.42 96.8995 108.717 98.1367H129.196C126.57 96.8993 124.316 96.0753 122.177 95.6648C121.048 93.7122 120.474 91.6059 120.295 89.5114C121.079 85.8538 122.603 83.7067 124.91 81.4729C123.349 82.0947 121.88 82.8744 120.644 84.0587C120.701 83.7826 120.764 83.5109 120.831 83.2416C121.598 81.2884 122.764 79.5317 124.308 77.9458C123.839 77.7268 123.397 77.4605 122.989 77.1464C121.96 78.2436 121.082 79.4238 120.373 80.6911C120.952 79.1376 121.416 77.5802 121.836 76.0281C121.395 75.4973 121.023 74.9 120.737 74.2519C120.4 75.5497 120.048 76.8384 119.644 78.1156C119.269 76.2263 118.744 74.3846 117.995 72.5718C117.959 72.5553 117.923 72.5386 117.888 72.5212L117.888 72.5209Z" fill="black"/>
<path d="M79.4319 82.9773V77.0455L75.4774 79.6818M75.4774 79.6818V84.9546M75.4774 79.6818H70.2046V78.3637M70.2046 78.3637V85.6137M70.2046 78.3637H62.9546V79.6818M62.9546 85.6137V79.6818M62.9546 79.6818L57.0228 77.0455V78.3637M57.0228 83.6364V78.3637M57.0228 78.3637L52.4092 72.4318M52.4092 72.4318V78.3637M52.4092 72.4318L59.0001 66.5V67.8182M59.0001 72.4318V67.8182M59.0001 67.8182L64.9319 63.2046V67.8182V61.2273H72.1819V62.5455M72.1819 66.5V62.5455M72.1819 62.5455H78.1137V66.5V61.2273L84.0455 65.1818V70.4546" stroke="black" stroke-width="1.31818" stroke-linejoin="round"/>
<ellipse cx="55.0455" cy="90.8864" rx="2.63636" ry="0.659091" stroke="black" stroke-width="1.31818" stroke-linejoin="round"/>
<path d="M57.6819 93.5227C57.6819 93.8867 56.5016 94.1818 55.0455 94.1818C53.5895 94.1818 52.4092 93.8867 52.4092 93.5227" stroke="black" stroke-width="1.31818" stroke-linejoin="round"/>
<path d="M52.4092 90.8864V93.5227M57.6819 90.8864V93.5227" stroke="black" stroke-width="1.31818" stroke-linejoin="round"/>
<ellipse cx="61.6364" cy="96.1591" rx="2.63636" ry="0.659091" stroke="black" stroke-width="1.31818" stroke-linejoin="round"/>
<path d="M64.2727 98.7955C64.2727 99.1595 63.0924 99.4546 61.6364 99.4546C60.1803 99.4546 59 99.1595 59 98.7955" stroke="black" stroke-width="1.31818" stroke-linejoin="round"/>
<path d="M59 96.1591V98.7955M64.2727 96.1591V98.7955" stroke="black" stroke-width="1.31818" stroke-linejoin="round"/>
<ellipse cx="154.568" cy="67.9281" rx="3.29545" ry="1.09848" stroke="black" stroke-width="1.31818" stroke-linejoin="round"/>
<path d="M157.864 72.3219C157.864 72.9286 156.388 73.4204 154.568 73.4204C152.748 73.4204 151.273 72.9286 151.273 72.3219" stroke="black" stroke-width="1.31818" stroke-linejoin="round"/>
<path d="M151.273 67.9281V72.322M157.864 67.9281V72.322" stroke="black" stroke-width="1.31818" stroke-linejoin="round"/>
<ellipse cx="171.705" cy="65.2368" rx="3.29545" ry="1.37311" stroke="black" stroke-width="1.31818" stroke-linejoin="round"/>
<path d="M175 70.7291C175 71.4874 173.525 72.1022 171.705 72.1022C169.885 72.1022 168.409 71.4874 168.409 70.7291" stroke="black" stroke-width="1.31818" stroke-linejoin="round"/>
<path d="M168.409 65.2369V70.7293M175 65.2369V70.7293" stroke="black" stroke-width="1.31818" stroke-linejoin="round"/>
<ellipse cx="165.773" cy="74.519" rx="2.63636" ry="1.09848" stroke="black" stroke-width="1.31818" stroke-linejoin="round"/>
<path d="M168.409 78.9129C168.409 79.5196 167.229 80.0114 165.773 80.0114C164.317 80.0114 163.136 79.5196 163.136 78.9129" stroke="black" stroke-width="1.31818" stroke-linejoin="round"/>
<path d="M163.136 74.5191V78.913M168.409 74.5191V78.913" stroke="black" stroke-width="1.31818" stroke-linejoin="round"/>
<ellipse cx="159.182" cy="82.2084" rx="3.95455" ry="0.878788" stroke="black" stroke-width="1.31818" stroke-linejoin="round"/>
<path d="M163.136 85.7234C163.136 86.2087 161.366 86.6022 159.182 86.6022C156.998 86.6022 155.227 86.2087 155.227 85.7234" stroke="black" stroke-width="1.31818" stroke-linejoin="round"/>
<path d="M155.227 82.2084V85.7236M163.136 82.2084V85.7236" stroke="black" stroke-width="1.31818" stroke-linejoin="round"/>
<ellipse cx="20.1137" cy="60.7879" rx="1.97727" ry="0.878788" stroke="black" stroke-width="1.31818" stroke-linejoin="round"/>
<path d="M22.091 64.303C22.091 64.7884 21.2058 65.1818 20.1137 65.1818C19.0217 65.1818 18.1365 64.7884 18.1365 64.303" stroke="black" stroke-width="1.31818" stroke-linejoin="round"/>
<path d="M18.1365 60.7881V64.3032M22.091 60.7881V64.3032" stroke="black" stroke-width="1.31818" stroke-linejoin="round"/>
<ellipse cx="10.8865" cy="58.1516" rx="1.97727" ry="0.878788" stroke="black" stroke-width="1.31818" stroke-linejoin="round"/>
<path d="M12.8637 61.6666C12.8637 62.152 11.9785 62.5454 10.8865 62.5454C9.79443 62.5454 8.90918 62.152 8.90918 61.6666" stroke="black" stroke-width="1.31818" stroke-linejoin="round"/>
<path d="M8.90918 58.1517V61.6669M12.8637 58.1517V61.6669" stroke="black" stroke-width="1.31818" stroke-linejoin="round"/>
<ellipse cx="3.63636" cy="62.3258" rx="2.63636" ry="1.09848" stroke="black" stroke-width="1.31818" stroke-linejoin="round"/>
<path d="M6.27273 66.7197C6.27273 67.3264 5.09239 67.8182 3.63636 67.8182C2.18034 67.8182 1 67.3264 1 66.7197" stroke="black" stroke-width="1.31818" stroke-linejoin="round"/>
<path d="M1 62.3259V66.7198M6.27273 62.3259V66.7198" stroke="black" stroke-width="1.31818" stroke-linejoin="round"/>
<ellipse cx="11.5455" cy="81.6591" rx="2.63636" ry="0.659091" stroke="black" stroke-width="1.31818" stroke-linejoin="round"/>
<path d="M14.1819 84.2955C14.1819 84.6595 13.0016 84.9546 11.5455 84.9546C10.0895 84.9546 8.90918 84.6595 8.90918 84.2955" stroke="black" stroke-width="1.31818" stroke-linejoin="round"/>
<path d="M8.90918 81.6592V84.2955M14.1819 81.6592V84.2955" stroke="black" stroke-width="1.31818" stroke-linejoin="round"/>
<ellipse cx="13.5227" cy="65.2368" rx="3.29545" ry="1.37311" stroke="black" stroke-width="1.31818" stroke-linejoin="round"/>
<path d="M16.8182 70.7291C16.8182 71.4875 15.3428 72.1022 13.5227 72.1022C11.7027 72.1022 10.2273 71.4875 10.2273 70.7291" stroke="black" stroke-width="1.31818" stroke-linejoin="round"/>
<path d="M10.2273 65.2369V70.7293M16.8182 65.2369V70.7293" stroke="black" stroke-width="1.31818" stroke-linejoin="round"/>
<ellipse cx="24.7273" cy="73.9698" rx="3.95455" ry="0.878788" stroke="black" stroke-width="1.31818" stroke-linejoin="round"/>
<path d="M28.6818 77.4848C28.6818 77.9701 26.9113 78.3636 24.7273 78.3636C22.5432 78.3636 20.7727 77.9701 20.7727 77.4848" stroke="black" stroke-width="1.31818" stroke-linejoin="round"/>
<path d="M20.7727 73.9698V77.485M28.6818 73.9698V77.485" stroke="black" stroke-width="1.31818" stroke-linejoin="round"/>
<ellipse cx="8.90907" cy="71.1137" rx="2.63636" ry="0.659091" stroke="black" stroke-width="1.31818" stroke-linejoin="round"/>
<path d="M11.5454 73.75C11.5454 74.114 10.3651 74.4091 8.90907 74.4091C7.45305 74.4091 6.27271 74.114 6.27271 73.75" stroke="black" stroke-width="1.31818" stroke-linejoin="round"/>
<path d="M6.27271 71.1137V73.75M11.5454 71.1137V73.75" stroke="black" stroke-width="1.31818" stroke-linejoin="round"/>
<ellipse cx="90.6364" cy="49.144" rx="2.63636" ry="1.09848" stroke="black" stroke-width="1.31818" stroke-linejoin="round"/>
<path d="M93.2727 53.5379C93.2727 54.1446 92.0924 54.6364 90.6364 54.6364C89.1803 54.6364 88 54.1446 88 53.5379" stroke="black" stroke-width="1.31818" stroke-linejoin="round"/>
<path d="M88 49.1441V53.538M93.2727 49.1441V53.538" stroke="black" stroke-width="1.31818" stroke-linejoin="round"/>
<ellipse cx="84.0455" cy="43.4318" rx="2.63636" ry="0.659091" stroke="black" stroke-width="1.31818" stroke-linejoin="round"/>
<path d="M86.6819 46.0682C86.6819 46.4322 85.5016 46.7273 84.0455 46.7273C82.5895 46.7273 81.4092 46.4322 81.4092 46.0682" stroke="black" stroke-width="1.31818" stroke-linejoin="round"/>
<path d="M81.4092 43.4319V46.0682M86.6819 43.4319V46.0682" stroke="black" stroke-width="1.31818" stroke-linejoin="round"/>
<ellipse cx="95.9091" cy="43.8713" rx="2.63636" ry="1.09848" stroke="black" stroke-width="1.31818" stroke-linejoin="round"/>
<path d="M98.5454 48.2652C98.5454 48.8719 97.3651 49.3637 95.9091 49.3637C94.453 49.3637 93.2727 48.8719 93.2727 48.2652" stroke="black" stroke-width="1.31818" stroke-linejoin="round"/>
<path d="M93.2727 43.8714V48.2653M98.5454 43.8714V48.2653" stroke="black" stroke-width="1.31818" stroke-linejoin="round"/>
<path d="M20.7727 101.787V94.8916L26.7045 100.063V106.958V97.4773L33.9545 98.3392V108.682V96.6154L41.8636 94.8916V96.6154M41.8636 106.958V96.6154M41.8636 96.6154L45.8182 93.1678M45.8182 93.1678V102.649M45.8182 93.1678L44.5 87.9965M44.5 87.9965V100.063M44.5 87.9965L40.5454 86.2727M40.5454 86.2727V98.3392M40.5454 86.2727H37.25V87.9965M37.25 93.1678V87.9965M37.25 87.9965H31.9772V93.1678" stroke="black" stroke-width="1.31818" stroke-linejoin="round"/>
<path d="M150.675 5.79401C150.761 4.85522 150.484 3.85337 149.8 2.97657C148.732 1.61024 147.254 1.51606 145.795 1.96227C144.19 0.312909 141.406 0.579955 140.003 2.36624C138.841 2.34179 137.591 2.88862 136.719 3.83058C135.056 5.62634 135.106 8.38121 136.302 10.3853C135.085 11.6039 134.613 13.3925 135.249 15.0817C135.814 16.5823 137.24 17.48 138.759 17.6627C135.605 24.1356 130.036 29.3084 123.347 31.9841C123.405 30.0134 123.821 28.0509 124.62 26.21C125.735 25.9199 126.551 25.2364 127.179 24.2271C128.693 24.8542 130.12 24.8206 131.275 23.5774C132.188 22.594 132.036 21.4549 131.463 20.3058C132.616 19.5846 133.499 18.7163 133.546 17.2711C133.593 15.8354 132.748 14.9241 131.696 14.1657C133.676 11.4197 132.686 9.56846 128.978 8.75777C128.746 7.99374 128.657 7.19933 128.287 6.57012C127.033 4.44149 123.726 4.21603 121.987 6.0442C121.658 6.39067 121.207 6.67956 120.758 6.84483C119.146 7.43715 118.248 8.75249 118.371 10.4605C118.384 10.6509 118.372 10.8427 118.372 11.0696C117.132 11.3154 116.056 11.7811 115.369 12.8736C114.713 13.9156 114.831 14.9733 115.235 16.0092C114.077 16.2382 113.257 17.2826 113.207 18.4618C112.59 20.0071 113.393 21.7915 115.1 22.6188C115.39 22.7592 115.762 23.0325 115.818 23.3022C116.018 24.2666 116.444 24.9882 117.065 25.4816C116.753 28.4834 117.299 31.416 119.839 33.6482C119.833 34.5512 119.863 35.4551 119.942 36.3579C119.877 37.7272 119.99 39.1136 120.349 40.5169C120.377 40.6249 120.422 40.7135 120.476 40.789C120.644 41.1957 121.057 41.4082 121.682 41.309C122.714 41.1451 123.722 40.8277 124.779 40.5679C124.76 40.5434 124.742 40.5204 124.723 40.4963C125.006 40.2761 125.171 39.8898 124.967 39.4801C124.367 38.2702 123.936 36.9962 123.666 35.6933C128.509 33.2728 132.844 29.9416 136.441 25.9382C136.865 25.9134 137.291 25.8795 137.717 25.8367C142.311 25.9087 146.426 23.4018 148.487 19.5025C148.756 19.3998 149.025 19.2702 149.294 19.1067C150.431 18.4144 150.963 17.1775 150.866 15.9982C152.393 14.9143 153.37 13.187 153.567 11.2148C153.787 9.00926 152.463 6.98421 150.675 5.79401ZM120.113 29.7228L119.673 29.2447C119.358 28.2991 119.269 27.294 119.327 26.267C119.801 26.2903 120.292 26.2443 120.822 26.1908C120.512 27.356 120.278 28.5355 120.113 29.7228ZM143.449 21.3847C142.121 22.5746 140.358 23.1132 138.571 23.3746C139.416 22.2754 140.211 21.1371 140.948 19.9591C141.874 20.6133 143.068 20.843 144.209 20.5791C143.986 20.8571 143.736 21.1267 143.449 21.3847Z" fill="black"/>
</svg>
