<svg width="138" height="121" viewBox="0 0 138 121" fill="none" xmlns="http://www.w3.org/2000/svg">
<path d="M52.2915 83.0284L59.9409 84.546L65.0367 86.8069L65.021 91.8036L62.7288 99.5429L52.7794 108.263L43.9779 112.489" stroke="black" stroke-width="0.4" stroke-dasharray="4 4"/>
<path d="M95.45 44.7143L86.1 37L79.5 43.0612V56.8367L86.1 64H93.8H105.9L118 59.0408L123.5 53.5306L120.75 49.1224H109.75L95.45 44.7143Z" stroke="black" stroke-width="0.4" stroke-dasharray="4 4"/>
<g clip-path="url(#clip0_20_29)">
<path d="M51.4139 28.4264C51.4903 27.5938 51.2448 26.7053 50.6374 25.9277C49.6902 24.7159 48.3795 24.6323 47.086 25.0281C45.6622 23.5653 43.1935 23.8021 41.949 25.3864C40.9183 25.3647 39.8101 25.8497 39.0364 26.6851C37.5616 28.2777 37.6055 30.721 38.6668 32.4984C37.5875 33.5792 37.1689 35.1655 37.7327 36.6636C38.2337 37.9946 39.4986 38.7907 40.8453 38.9528C38.0486 44.6936 33.1089 49.2813 27.1765 51.6544C27.2278 49.9065 27.5974 48.166 28.3054 46.5333C29.295 46.276 30.0187 45.6699 30.5751 44.7747C31.9181 45.3309 33.1841 45.3011 34.2077 44.1985C35.0175 43.3263 34.8832 42.316 34.3749 41.2969C35.3973 40.6572 36.1804 39.8872 36.2222 38.6055C36.2638 37.3321 35.5148 36.5239 34.5812 35.8512C36.3379 33.4158 35.4591 31.774 32.1712 31.055C31.9655 30.3774 31.8864 29.6728 31.5577 29.1148C30.4459 27.2269 27.5129 27.0269 25.9708 28.6483C25.6784 28.9556 25.279 29.2118 24.8801 29.3584C23.4505 29.8837 22.6546 31.0503 22.7632 32.5651C22.7753 32.734 22.7648 32.9041 22.7648 33.1054C21.6642 33.3233 20.7102 33.7364 20.1006 34.7053C19.5191 35.6295 19.6235 36.5675 19.9818 37.4862C18.9548 37.6893 18.228 38.6156 18.1832 39.6615C17.6362 41.0319 18.3486 42.6146 19.8624 43.3483C20.1195 43.4728 20.4495 43.7152 20.4993 43.9544C20.677 44.8098 21.0542 45.4497 21.6053 45.8873C21.3285 48.5496 21.8123 51.1506 24.0656 53.1302C24.0604 53.9311 24.087 54.7328 24.1572 55.5335C24.0994 56.7479 24.1991 57.9775 24.5181 59.2221C24.5428 59.3178 24.5828 59.3964 24.6307 59.4634C24.779 59.8241 25.1457 60.0126 25.7001 59.9246C26.6154 59.7793 27.5089 59.4977 28.4467 59.2673C28.43 59.2456 28.414 59.2252 28.3972 59.2038C28.6483 59.0085 28.7941 58.6659 28.6137 58.3026C28.0818 57.2295 27.6992 56.0996 27.46 54.9441C31.7553 52.7973 35.5996 49.8429 38.7901 46.2923C39.1663 46.2703 39.5439 46.2402 39.9211 46.2023C43.9955 46.2661 47.645 44.0427 49.4738 40.5844C49.7123 40.4933 49.9509 40.3785 50.1891 40.2334C51.1978 39.6194 51.6697 38.5225 51.5836 37.4766C52.9378 36.5152 53.8039 34.9833 53.9787 33.2341C54.1737 31.278 52.9995 29.482 51.4139 28.4264ZM24.3087 49.6488L23.9182 49.2248C23.6386 48.3862 23.5596 47.4947 23.6112 46.5839C24.0318 46.6045 24.4671 46.5637 24.9374 46.5163C24.6623 47.5497 24.4553 48.5958 24.3087 49.6488ZM45.0049 42.2538C43.8276 43.3091 42.264 43.7868 40.6785 44.0187C41.4279 43.0438 42.1338 42.0342 42.787 40.9894C43.6086 41.5697 44.6671 41.7733 45.6789 41.5393C45.4813 41.7858 45.2601 42.025 45.0049 42.2538Z" fill="black"/>
</g>
<path d="M90.6204 64.4569C90.5204 64.4576 90.4205 64.4615 90.3216 64.4678C88.9094 64.5585 87.683 65.195 87.0609 66.3684L88.3002 67.2495H86.2392C85.5126 66.88 86.2681 67.2308 85.4394 66.8783C83.8111 65.9559 82.009 66.2005 80.7109 67.076C79.3002 68.0271 78.5499 69.5936 79.287 71.3013L79.5045 71.8044L79.0496 72.1075C77.5424 73.1172 76.7295 74.2445 76.4393 75.4913C76.149 76.7384 76.3817 78.1622 77.1798 79.7696L77.3534 80.1232L77.1249 80.4442C76.1549 81.8068 76.5005 83.163 77.5445 84.0322C78.2507 84.6203 78.9142 84.7341 79.6297 84.553C80.3453 84.372 81.1168 83.8393 81.7897 83.015L81.9764 82.7865L82.2686 82.7733C84.2182 82.689 85.7624 81.9552 86.7665 80.8243C87.7705 79.6933 88.2585 78.1538 88.0122 76.3309L87.9397 75.7969L88.4495 75.6211C89.0166 75.4265 89.4852 75.0481 89.7723 74.5292L90.1436 73.8567L90.7501 74.3292C91.1994 74.6791 92.3664 74.9196 92.9561 74.7488L93.6789 74.54L93.7889 75.285C94.0913 77.3495 95.504 78.9788 97.3088 79.5146L97.8888 79.686L97.7658 80.2793C97.5435 81.3333 97.871 82.1127 98.4999 82.6281C99.1284 83.1437 100.102 83.3793 101.224 83.0808L101.662 82.9644L101.928 83.3335C102.878 84.6585 104.033 85.3084 105.186 85.4121C106.339 85.5158 107.527 85.0785 108.563 84.0344C109.451 83.1403 109.734 82.1704 109.622 81.1912C109.51 80.2117 108.967 79.214 108.093 78.4115L107.495 77.8622L108.157 77.392C108.711 76.9982 108.912 76.2726 108.783 75.599C108.654 74.9254 108.254 74.4264 107.634 74.3488L106.974 74.2675L107.064 73.6083C107.475 70.6153 106.107 68.1487 103.876 66.7419C101.646 65.3349 98.5556 65.0202 95.5245 66.5242L95.052 66.7594L94.7203 66.3462C93.7737 65.1652 92.3281 64.5344 90.9211 64.4631C90.8206 64.458 90.7203 64.4558 90.6202 64.4566L90.6204 64.4569ZM90.5346 75.7287C90.2532 76.0665 89.9112 76.3421 89.5327 76.5571C90.3742 78.6658 90.8567 80.8309 91.1522 83.1336C90.8319 83.9237 90.4719 84.7072 90.0624 85.4846L90.0513 85.4891C89.4508 84.1155 88.7806 82.75 87.8584 81.5692C87.8225 81.6119 87.7856 81.6549 87.7485 81.6966C87.4934 81.9841 87.2105 82.2477 86.9048 82.4876C87.7509 83.6033 88.3847 84.9366 88.9944 86.3505C89.5375 89.4013 89.4435 92.7677 88.7988 95.8294C86.9196 96.1861 84.9177 96.8996 82.5696 97.974H100.354C98.0742 96.8995 96.1167 96.1838 94.259 95.8273C93.2782 94.1317 92.7799 92.3026 92.6243 90.4836C93.3057 87.3073 94.6284 85.4427 96.6321 83.5028C95.2767 84.0428 94.0008 84.7199 92.9275 85.7484C92.9769 85.5086 93.0321 85.2727 93.0899 85.0388C93.7562 83.3426 94.7683 81.8171 96.1092 80.4399C95.7025 80.2497 95.3181 80.0184 94.9643 79.7456C94.0706 80.6985 93.308 81.7234 92.6923 82.8239C93.1955 81.4748 93.5979 80.1223 93.9624 78.7744C93.5797 78.3135 93.2571 77.7948 93.0087 77.2319C92.7157 78.359 92.4102 79.4781 92.0595 80.5872C91.7335 78.9466 91.2776 77.3472 90.6269 75.7729C90.5961 75.7586 90.565 75.7441 90.5346 75.729L90.5346 75.7287Z" fill="black"/>
<path d="M82.5 92.8333L77.5 96.5L77 98.9444L80 100.778L87 102H95.5L101 100.167L104 97.1111L103.5 92.8333L95.5 91L82.5 92.8333Z" stroke="black" stroke-width="0.4" stroke-dasharray="4 4"/>
<path d="M60.5 79.5V75L57.5 77M57.5 77V81M57.5 77H53.5V76M53.5 76V81.5M53.5 76H48V77M48 81.5V77M48 77L43.5 75V76M43.5 80V76M43.5 76L40 71.5M40 71.5V76M40 71.5L45 67V68M45 71.5V68M45 68L49.5 64.5V68V63H55V64M55 67V64M55 64H59.5V67V63L64 66V70" stroke="black" stroke-linejoin="round"/>
<ellipse cx="42" cy="92.5" rx="2" ry="0.5" stroke="black" stroke-linejoin="round"/>
<path d="M44 94.5C44 94.7761 43.1046 95 42 95C40.8954 95 40 94.7761 40 94.5" stroke="black" stroke-linejoin="round"/>
<path d="M40 92.5V94.5M44 92.5V94.5" stroke="black" stroke-linejoin="round"/>
<ellipse cx="47" cy="96.5" rx="2" ry="0.5" stroke="black" stroke-linejoin="round"/>
<path d="M49 98.5C49 98.7761 48.1046 99 47 99C45.8954 99 45 98.7761 45 98.5" stroke="black" stroke-linejoin="round"/>
<path d="M45 96.5V98.5M49 96.5V98.5" stroke="black" stroke-linejoin="round"/>
<ellipse cx="93.5" cy="106.083" rx="2.5" ry="0.833333" stroke="black" stroke-linejoin="round"/>
<path d="M96 109.417C96 109.877 94.8807 110.25 93.5 110.25C92.1193 110.25 91 109.877 91 109.417" stroke="black" stroke-linejoin="round"/>
<path d="M91 106.083V109.417M96 106.083V109.417" stroke="black" stroke-linejoin="round"/>
<ellipse cx="106.5" cy="104.042" rx="2.5" ry="1.04167" stroke="black" stroke-linejoin="round"/>
<path d="M109 108.208C109 108.784 107.881 109.25 106.5 109.25C105.119 109.25 104 108.784 104 108.208" stroke="black" stroke-linejoin="round"/>
<path d="M104 104.042V108.208M109 104.042V108.208" stroke="black" stroke-linejoin="round"/>
<ellipse cx="102" cy="111.083" rx="2" ry="0.833333" stroke="black" stroke-linejoin="round"/>
<path d="M104 114.417C104 114.877 103.105 115.25 102 115.25C100.895 115.25 100 114.877 100 114.417" stroke="black" stroke-linejoin="round"/>
<path d="M100 111.083V114.417M104 111.083V114.417" stroke="black" stroke-linejoin="round"/>
<ellipse cx="97" cy="116.917" rx="3" ry="0.666667" stroke="black" stroke-linejoin="round"/>
<path d="M100 119.583C100 119.951 98.6569 120.25 97 120.25C95.3431 120.25 94 119.951 94 119.583" stroke="black" stroke-linejoin="round"/>
<path d="M94 116.917V119.583M100 116.917V119.583" stroke="black" stroke-linejoin="round"/>
<ellipse cx="15.5" cy="69.6667" rx="1.5" ry="0.666667" stroke="black" stroke-linejoin="round"/>
<path d="M17 72.3333C17 72.7014 16.3284 72.9999 15.5 72.9999C14.6716 72.9999 14 72.7014 14 72.3333" stroke="black" stroke-linejoin="round"/>
<path d="M14 69.6667V72.3334M17 69.6667V72.3334" stroke="black" stroke-linejoin="round"/>
<ellipse cx="8.5" cy="67.6667" rx="1.5" ry="0.666667" stroke="black" stroke-linejoin="round"/>
<path d="M10 70.3333C10 70.7014 9.32843 70.9999 8.5 70.9999C7.67157 70.9999 7 70.7014 7 70.3333" stroke="black" stroke-linejoin="round"/>
<path d="M7 67.6667V70.3334M10 67.6667V70.3334" stroke="black" stroke-linejoin="round"/>
<ellipse cx="3" cy="70.8333" rx="2" ry="0.833333" stroke="black" stroke-linejoin="round"/>
<path d="M5 74.1666C5 74.6269 4.10457 75 3 75C1.89543 75 1 74.6269 1 74.1666" stroke="black" stroke-linejoin="round"/>
<path d="M1 70.8334V74.1667M5 70.8334V74.1667" stroke="black" stroke-linejoin="round"/>
<ellipse cx="9" cy="85.5" rx="2" ry="0.5" stroke="black" stroke-linejoin="round"/>
<path d="M11 87.5C11 87.7761 10.1046 88 9 88C7.89543 88 7 87.7761 7 87.5" stroke="black" stroke-linejoin="round"/>
<path d="M7 85.5V87.5M11 85.5V87.5" stroke="black" stroke-linejoin="round"/>
<ellipse cx="10.5" cy="73.0417" rx="2.5" ry="1.04167" stroke="black" stroke-linejoin="round"/>
<path d="M13 77.2083C13 77.7835 11.8807 78.2499 10.5 78.2499C9.11929 78.2499 8 77.7835 8 77.2083" stroke="black" stroke-linejoin="round"/>
<path d="M8 73.0417V77.2084M13 73.0417V77.2084" stroke="black" stroke-linejoin="round"/>
<ellipse cx="19" cy="79.6667" rx="3" ry="0.666667" stroke="black" stroke-linejoin="round"/>
<path d="M22 82.3333C22 82.7014 20.6569 82.9999 19 82.9999C17.3431 82.9999 16 82.7014 16 82.3333" stroke="black" stroke-linejoin="round"/>
<path d="M16 79.6667V82.3334M22 79.6667V82.3334" stroke="black" stroke-linejoin="round"/>
<ellipse cx="7" cy="77.5" rx="2" ry="0.5" stroke="black" stroke-linejoin="round"/>
<path d="M9 79.5C9 79.7761 8.10457 80 7 80C5.89543 80 5 79.7761 5 79.5" stroke="black" stroke-linejoin="round"/>
<path d="M5 77.5V79.5M9 77.5V79.5" stroke="black" stroke-linejoin="round"/>
<ellipse cx="74" cy="57.8333" rx="2" ry="0.833333" stroke="black" stroke-linejoin="round"/>
<path d="M76 61.1666C76 61.6269 75.1046 62 74 62C72.8954 62 72 61.6269 72 61.1666" stroke="black" stroke-linejoin="round"/>
<path d="M72 57.8334V61.1667M76 57.8334V61.1667" stroke="black" stroke-linejoin="round"/>
<ellipse cx="69" cy="53.5" rx="2" ry="0.5" stroke="black" stroke-linejoin="round"/>
<path d="M71 55.5C71 55.7761 70.1046 56 69 56C67.8954 56 67 55.7761 67 55.5" stroke="black" stroke-linejoin="round"/>
<path d="M67 53.5V55.5M71 53.5V55.5" stroke="black" stroke-linejoin="round"/>
<ellipse cx="78" cy="53.8333" rx="2" ry="0.833333" stroke="black" stroke-linejoin="round"/>
<path d="M80 57.1666C80 57.6269 79.1046 58 78 58C76.8954 58 76 57.6269 76 57.1666" stroke="black" stroke-linejoin="round"/>
<path d="M76 53.8334V57.1667M80 53.8334V57.1667" stroke="black" stroke-linejoin="round"/>
<ellipse cx="134.5" cy="39.8333" rx="2.5" ry="0.833333" stroke="black" stroke-linejoin="round"/>
<path d="M137 43.1666C137 43.6269 135.881 44 134.5 44C133.119 44 132 43.6269 132 43.1666" stroke="black" stroke-linejoin="round"/>
<path d="M132 39.8334V43.1667M137 39.8334V43.1667" stroke="black" stroke-linejoin="round"/>
<ellipse cx="130.5" cy="43.0417" rx="2.5" ry="1.04167" stroke="black" stroke-linejoin="round"/>
<path d="M133 47.2083C133 47.7835 131.881 48.2499 130.5 48.2499C129.119 48.2499 128 47.7835 128 47.2083" stroke="black" stroke-linejoin="round"/>
<path d="M128 43.0417V47.2084M133 43.0417V47.2084" stroke="black" stroke-linejoin="round"/>
<ellipse cx="122.5" cy="44.6667" rx="1.5" ry="0.666667" stroke="black" stroke-linejoin="round"/>
<path d="M124 47.3333C124 47.7014 123.328 47.9999 122.5 47.9999C121.672 47.9999 121 47.7014 121 47.3333" stroke="black" stroke-linejoin="round"/>
<path d="M121 44.6667V47.3334M124 44.6667V47.3334" stroke="black" stroke-linejoin="round"/>
<ellipse cx="134" cy="51.8333" rx="2" ry="0.833333" stroke="black" stroke-linejoin="round"/>
<path d="M136 55.1666C136 55.6269 135.105 56 134 56C132.895 56 132 55.6269 132 55.1666" stroke="black" stroke-linejoin="round"/>
<path d="M132 51.8334V55.1667M136 51.8334V55.1667" stroke="black" stroke-linejoin="round"/>
<ellipse cx="115.5" cy="28.9001" rx="13.5" ry="5.40007" stroke="black" stroke-linejoin="round"/>
<path d="M126.3 28.9C126.3 30.3912 121.465 32.275 115.5 32.275C109.535 32.275 104.7 30.3912 104.7 28.9C104.7 27.4089 109.535 25.525 115.5 25.525C121.465 25.525 126.3 27.4089 126.3 28.9Z" stroke="black" stroke-linejoin="round"/>
<path d="M129 31.6C129 34.5824 122.956 37 115.5 37C108.044 37 102 34.5824 102 31.6" stroke="black" stroke-linejoin="round"/>
<path d="M102 28.9V31.6M129 28.9V31.6" stroke="black" stroke-linejoin="round"/>
<path d="M87 52.5V45L96 46V49.65M96 53.5V49.65M96 49.65L89.5 49M89.5 49V56M89.5 49L99.5 50V57.5" stroke="black" stroke-linejoin="round"/>
<path d="M88 12.7692V7.53846L92.5 11.4615V16.6923V9.5L98 10.1538V18V8.84615L104 7.53846V8.84615M104 16.6923V8.84615M104 8.84615L107 6.23077M107 6.23077V13.4231M107 6.23077L106 2.30769M106 2.30769V11.4615M106 2.30769L103 1M103 1V10.1538M103 1H100.5V2.30769M100.5 6.23077V2.30769M100.5 2.30769H96.5V6.23077" stroke="black" stroke-linejoin="round"/>
<path d="M92.2714 46L86.8429 41L83.5857 43.2222L82.5 47.6667V53.7778L86.3 59.3333L92.2714 61H98.2429H105.3L110.186 59.3333L116.7 57.1111L120.5 53.2222L119.414 51H112.357L102.586 49.3333L92.2714 46Z" stroke="black" stroke-width="0.4" stroke-dasharray="4 4"/>
<path d="M50.5812 86.0221L37.8164 88.4894L32.416 92.9733L29.5577 100.461L36.6253 106.724L43.7125 106.742L52.51 103.765L58.7656 97.7843L61.3389 90.7952L58.5118 88.29L50.5812 86.0221Z" stroke="black" stroke-width="0.4" stroke-dasharray="4 4"/>
<path d="M36.0365 94.0898L33.6791 98.2164L34.6902 100.964L38.7988 103.936L44.741 103.699L51.7401 100.482L56.1656 96.1239L57.4845 92.6859L56.7262 90.6252L53.1231 89.0266L46.6662 89.0354L39.4235 90.4198L36.0365 94.0898Z" stroke="black" stroke-width="0.4" stroke-dasharray="4 4"/>
<path d="M91 33.5L98 41.5L109 46.5H118H123L127 53L123 57.5L115.5 63L105.5 67H88.5L75 71.5L72 78.5" stroke="black" stroke-width="0.4" stroke-dasharray="4 4"/>
<path d="M81.3846 91.3077L74 96.5V99.9615L80.4 102.846L86.8 104H93.2L101.569 102.846L106 98.2308V91.3077L97.6308 89L81.3846 91.3077Z" stroke="black" stroke-width="0.4" stroke-dasharray="4 4"/>
<defs>
<clipPath id="clip0_20_29">
<rect width="36" height="36" fill="white" transform="translate(18 24)"/>
</clipPath>
</defs>
</svg>
