<svg width="134" height="98" viewBox="0 0 134 98" fill="none" xmlns="http://www.w3.org/2000/svg">
<path d="M98.0979 65.2773L106.294 66.9196L111.753 69.3663L111.737 74.7736L109.281 83.1488L98.6206 92.5854L89.1905 97.1584" stroke="black" stroke-width="0.4" stroke-dasharray="4 4"/>
<path d="M95.45 25.7143L86.1 18L79.5 24.0612V37.8367L86.1 45H93.8H105.9L118 40.0408L123.5 34.5306L120.75 30.1224H109.75L95.45 25.7143Z" stroke="black" stroke-width="0.4" stroke-dasharray="4 4"/>
<path d="M30 35.5V28L39 29V32.65M39 36.5V32.65M39 32.65L32.5 32M32.5 32V39M32.5 32L42.5 33V40.5" stroke="black" stroke-linejoin="round"/>
<path d="M90.6204 45.4569C90.5204 45.4576 90.4205 45.4615 90.3216 45.4678C88.9094 45.5585 87.683 46.195 87.0609 47.3684L88.3002 48.2495H86.2392C85.5126 47.88 86.2681 48.2308 85.4394 47.8783C83.8111 46.9559 82.009 47.2005 80.7109 48.076C79.3002 49.0271 78.5499 50.5936 79.287 52.3013L79.5045 52.8044L79.0496 53.1075C77.5424 54.1172 76.7295 55.2445 76.4393 56.4913C76.149 57.7384 76.3817 59.1622 77.1798 60.7696L77.3534 61.1232L77.1249 61.4442C76.1549 62.8068 76.5005 64.163 77.5445 65.0322C78.2507 65.6203 78.9142 65.7341 79.6297 65.553C80.3453 65.372 81.1168 64.8393 81.7897 64.015L81.9764 63.7865L82.2686 63.7733C84.2182 63.689 85.7624 62.9552 86.7665 61.8243C87.7705 60.6933 88.2585 59.1538 88.0122 57.3309L87.9397 56.7969L88.4495 56.6211C89.0166 56.4265 89.4852 56.0481 89.7723 55.5292L90.1436 54.8567L90.7501 55.3292C91.1994 55.6791 92.3664 55.9196 92.9561 55.7488L93.6789 55.54L93.7889 56.285C94.0913 58.3495 95.504 59.9788 97.3088 60.5146L97.8888 60.686L97.7658 61.2793C97.5435 62.3333 97.871 63.1127 98.4999 63.6281C99.1284 64.1437 100.102 64.3793 101.224 64.0808L101.662 63.9644L101.928 64.3335C102.878 65.6585 104.033 66.3084 105.186 66.4121C106.339 66.5158 107.527 66.0785 108.563 65.0344C109.451 64.1403 109.734 63.1704 109.622 62.1912C109.51 61.2117 108.967 60.214 108.093 59.4115L107.495 58.8622L108.157 58.392C108.711 57.9982 108.912 57.2726 108.783 56.599C108.654 55.9254 108.254 55.4264 107.634 55.3488L106.974 55.2675L107.064 54.6083C107.475 51.6153 106.107 49.1487 103.876 47.7419C101.646 46.3349 98.5556 46.0202 95.5245 47.5242L95.052 47.7594L94.7203 47.3462C93.7737 46.1652 92.3281 45.5344 90.9211 45.4631C90.8206 45.458 90.7203 45.4558 90.6202 45.4566L90.6204 45.4569ZM90.5346 56.7287C90.2532 57.0665 89.9112 57.3421 89.5327 57.5571C90.3742 59.6658 90.8567 61.8309 91.1522 64.1336C90.8319 64.9237 90.4719 65.7072 90.0624 66.4846L90.0513 66.4891C89.4508 65.1155 88.7806 63.75 87.8584 62.5692C87.8225 62.6119 87.7856 62.6549 87.7485 62.6966C87.4934 62.9841 87.2105 63.2477 86.9048 63.4876C87.7509 64.6033 88.3847 65.9366 88.9944 67.3505C89.5375 70.4013 89.4435 73.7677 88.7988 76.8294C86.9196 77.1861 84.9177 77.8996 82.5696 78.974H100.354C98.0742 77.8995 96.1167 77.1838 94.259 76.8273C93.2782 75.1317 92.7799 73.3026 92.6243 71.4836C93.3057 68.3073 94.6284 66.4427 96.6321 64.5028C95.2767 65.0428 94.0008 65.7199 92.9275 66.7484C92.9769 66.5086 93.0321 66.2727 93.0899 66.0388C93.7562 64.3426 94.7683 62.8171 96.1092 61.4399C95.7025 61.2497 95.3181 61.0184 94.9643 60.7456C94.0706 61.6985 93.308 62.7234 92.6923 63.8239C93.1955 62.4748 93.5979 61.1223 93.9624 59.7744C93.5797 59.3135 93.2571 58.7948 93.0087 58.2319C92.7157 59.359 92.4102 60.4781 92.0595 61.5872C91.7335 59.9466 91.2776 58.3472 90.6269 56.7729C90.5961 56.7586 90.565 56.7441 90.5346 56.729L90.5346 56.7287Z" fill="black"/>
<path d="M26.3148 31.1667L20.5741 35.5L20 38.3889L23.4444 40.5556L31.4815 42H41.2407L47.5556 39.8333L51 36.2222L50.4259 31.1667L41.2407 29L26.3148 31.1667Z" stroke="black" stroke-width="0.4" stroke-dasharray="4 4"/>
<path d="M60.5 67.5V63L57.5 65M57.5 65V69M57.5 65H53.5V64M53.5 64V69.5M53.5 64H48V65M48 69.5V65M48 65L43.5 63V64M43.5 68V64M43.5 64L40 59.5M40 59.5V64M40 59.5L45 55V56M45 59.5V56M45 56L49.5 52.5V56V51H55V52M55 55V52M55 52H59.5V55V51L64 54V58" stroke="black" stroke-linejoin="round"/>
<ellipse cx="42" cy="73.5" rx="2" ry="0.5" stroke="black" stroke-linejoin="round"/>
<path d="M44 75.5C44 75.7761 43.1046 76 42 76C40.8954 76 40 75.7761 40 75.5" stroke="black" stroke-linejoin="round"/>
<path d="M40 73.5V75.5M44 73.5V75.5" stroke="black" stroke-linejoin="round"/>
<ellipse cx="47" cy="77.5" rx="2" ry="0.5" stroke="black" stroke-linejoin="round"/>
<path d="M49 79.5C49 79.7761 48.1046 80 47 80C45.8954 80 45 79.7761 45 79.5" stroke="black" stroke-linejoin="round"/>
<path d="M45 77.5V79.5M49 77.5V79.5" stroke="black" stroke-linejoin="round"/>
<ellipse cx="117.5" cy="56.0833" rx="2.5" ry="0.833333" stroke="black" stroke-linejoin="round"/>
<path d="M120 59.4166C120 59.8769 118.881 60.25 117.5 60.25C116.119 60.25 115 59.8769 115 59.4166" stroke="black" stroke-linejoin="round"/>
<path d="M115 56.0834V59.4167M120 56.0834V59.4167" stroke="black" stroke-linejoin="round"/>
<ellipse cx="130.5" cy="54.0417" rx="2.5" ry="1.04167" stroke="black" stroke-linejoin="round"/>
<path d="M133 58.2083C133 58.7835 131.881 59.2499 130.5 59.2499C129.119 59.2499 128 58.7835 128 58.2083" stroke="black" stroke-linejoin="round"/>
<path d="M128 54.0417V58.2084M133 54.0417V58.2084" stroke="black" stroke-linejoin="round"/>
<ellipse cx="126" cy="61.0833" rx="2" ry="0.833333" stroke="black" stroke-linejoin="round"/>
<path d="M128 64.4166C128 64.8769 127.105 65.25 126 65.25C124.895 65.25 124 64.8769 124 64.4166" stroke="black" stroke-linejoin="round"/>
<path d="M124 61.0834V64.4167M128 61.0834V64.4167" stroke="black" stroke-linejoin="round"/>
<ellipse cx="121" cy="66.9167" rx="3" ry="0.666667" stroke="black" stroke-linejoin="round"/>
<path d="M124 69.5833C124 69.9514 122.657 70.2499 121 70.2499C119.343 70.2499 118 69.9514 118 69.5833" stroke="black" stroke-linejoin="round"/>
<path d="M118 66.9167V69.5834M124 66.9167V69.5834" stroke="black" stroke-linejoin="round"/>
<ellipse cx="15.5" cy="50.6667" rx="1.5" ry="0.666667" stroke="black" stroke-linejoin="round"/>
<path d="M17 53.3333C17 53.7014 16.3284 53.9999 15.5 53.9999C14.6716 53.9999 14 53.7014 14 53.3333" stroke="black" stroke-linejoin="round"/>
<path d="M14 50.6667V53.3334M17 50.6667V53.3334" stroke="black" stroke-linejoin="round"/>
<ellipse cx="8.5" cy="48.6667" rx="1.5" ry="0.666667" stroke="black" stroke-linejoin="round"/>
<path d="M10 51.3333C10 51.7014 9.32843 51.9999 8.5 51.9999C7.67157 51.9999 7 51.7014 7 51.3333" stroke="black" stroke-linejoin="round"/>
<path d="M7 48.6667V51.3334M10 48.6667V51.3334" stroke="black" stroke-linejoin="round"/>
<ellipse cx="3" cy="51.8333" rx="2" ry="0.833333" stroke="black" stroke-linejoin="round"/>
<path d="M5 55.1666C5 55.6269 4.10457 56 3 56C1.89543 56 1 55.6269 1 55.1666" stroke="black" stroke-linejoin="round"/>
<path d="M1 51.8334V55.1667M5 51.8334V55.1667" stroke="black" stroke-linejoin="round"/>
<ellipse cx="9" cy="66.5" rx="2" ry="0.5" stroke="black" stroke-linejoin="round"/>
<path d="M11 68.5C11 68.7761 10.1046 69 9 69C7.89543 69 7 68.7761 7 68.5" stroke="black" stroke-linejoin="round"/>
<path d="M7 66.5V68.5M11 66.5V68.5" stroke="black" stroke-linejoin="round"/>
<ellipse cx="10.5" cy="54.0417" rx="2.5" ry="1.04167" stroke="black" stroke-linejoin="round"/>
<path d="M13 58.2083C13 58.7835 11.8807 59.2499 10.5 59.2499C9.11929 59.2499 8 58.7835 8 58.2083" stroke="black" stroke-linejoin="round"/>
<path d="M8 54.0417V58.2084M13 54.0417V58.2084" stroke="black" stroke-linejoin="round"/>
<ellipse cx="19" cy="60.6667" rx="3" ry="0.666667" stroke="black" stroke-linejoin="round"/>
<path d="M22 63.3333C22 63.7014 20.6569 63.9999 19 63.9999C17.3431 63.9999 16 63.7014 16 63.3333" stroke="black" stroke-linejoin="round"/>
<path d="M16 60.6667V63.3334M22 60.6667V63.3334" stroke="black" stroke-linejoin="round"/>
<ellipse cx="7" cy="58.5" rx="2" ry="0.5" stroke="black" stroke-linejoin="round"/>
<path d="M9 60.5C9 60.7761 8.10457 61 7 61C5.89543 61 5 60.7761 5 60.5" stroke="black" stroke-linejoin="round"/>
<path d="M5 58.5V60.5M9 58.5V60.5" stroke="black" stroke-linejoin="round"/>
<ellipse cx="69" cy="41.8333" rx="2" ry="0.833333" stroke="black" stroke-linejoin="round"/>
<path d="M71 45.1666C71 45.6269 70.1046 46 69 46C67.8954 46 67 45.6269 67 45.1666" stroke="black" stroke-linejoin="round"/>
<path d="M67 41.8334V45.1667M71 41.8334V45.1667" stroke="black" stroke-linejoin="round"/>
<ellipse cx="64" cy="37.5" rx="2" ry="0.5" stroke="black" stroke-linejoin="round"/>
<path d="M66 39.5C66 39.7761 65.1046 40 64 40C62.8954 40 62 39.7761 62 39.5" stroke="black" stroke-linejoin="round"/>
<path d="M62 37.5V39.5M66 37.5V39.5" stroke="black" stroke-linejoin="round"/>
<ellipse cx="73" cy="37.8333" rx="2" ry="0.833333" stroke="black" stroke-linejoin="round"/>
<path d="M75 41.1666C75 41.6269 74.1046 42 73 42C71.8954 42 71 41.6269 71 41.1666" stroke="black" stroke-linejoin="round"/>
<path d="M71 37.8334V41.1667M75 37.8334V41.1667" stroke="black" stroke-linejoin="round"/>
<path d="M56 22.7692V17.5385L60.5 21.4615V26.6923V19.5L66 20.1538V28V18.8462L72 17.5385V18.8462M72 26.6923V18.8462M72 18.8462L75 16.2308M75 16.2308V23.4231M75 16.2308L74 12.3077M74 12.3077V21.4615M74 12.3077L71 11M71 11V20.1538M71 11H68.5V12.3077M68.5 16.2308V12.3077M68.5 12.3077H64.5V16.2308" stroke="black" stroke-linejoin="round"/>
<path d="M92 27.75L87 23L84 25.1111L83 29.3333V35.1389L86.5 40.4167L92 42H97.5H104L108.5 40.4167L114.5 38.3056L118 34.6111L117 32.5H110.5L101.5 30.9167L92 27.75Z" stroke="black" stroke-width="0.4" stroke-dasharray="4 4"/>
<path d="M96.2655 68.517L82.589 71.187L76.8029 76.0394L73.7403 84.1428L81.3128 90.9205L88.9062 90.9392L98.3321 87.718L105.034 81.2457L107.792 73.6823L104.763 70.9712L96.2655 68.517Z" stroke="black" stroke-width="0.4" stroke-dasharray="4 4"/>
<path d="M80.6819 77.2476L78.1561 81.7134L79.2394 84.6867L83.6415 87.9034L90.0081 87.6467L97.5072 84.1657L102.249 79.4489L103.662 75.7284L102.849 73.4984L98.989 71.7684L92.0709 71.778L84.3108 73.2761L80.6819 77.2476Z" stroke="black" stroke-width="0.4" stroke-dasharray="4 4"/>
<path d="M91 14.5L98 22.5L109 27.5H118H123L127 34L123 38.5L115.5 44L105.5 48H88.5L75 52.5L72 59.5" stroke="black" stroke-width="0.4" stroke-dasharray="4 4"/>
<path d="M25.3077 28.9231L17 35.5V39.8846L24.2 43.5385L31.4 45H38.6L48.0154 43.5385L53 37.6923V28.9231L43.5846 26L25.3077 28.9231Z" stroke="black" stroke-width="0.4" stroke-dasharray="4 4"/>
<path d="M117.414 4.37272C117.49 3.54012 117.245 2.65157 116.637 1.87395C115.69 0.662149 114.38 0.578625 113.086 0.974368C111.662 -0.488449 109.193 -0.251606 107.949 1.33265C106.918 1.31096 105.81 1.79594 105.036 2.63137C103.562 4.22402 103.606 6.66731 104.667 8.44472C103.587 9.52546 103.169 11.1118 103.733 12.6099C104.234 13.9409 105.499 14.737 106.845 14.8991C104.049 20.6399 99.1089 25.2276 93.1765 27.6007C93.2278 25.8528 93.5974 24.1123 94.3054 22.4796C95.295 22.2223 96.0187 21.6162 96.5751 20.721C97.9181 21.2772 99.1841 21.2474 100.208 20.1448C101.018 19.2726 100.883 18.2623 100.375 17.2432C101.397 16.6035 102.18 15.8335 102.222 14.5518C102.264 13.2784 101.515 12.4702 100.581 11.7975C102.338 9.36213 101.459 7.72027 98.1712 7.00128C97.9655 6.32366 97.8864 5.6191 97.5577 5.06106C96.4459 3.17318 93.5129 2.97322 91.9708 4.59462C91.6784 4.9019 91.279 5.15812 90.8801 5.3047C89.4505 5.83002 88.6546 6.9966 88.7632 8.51144C88.7753 8.68028 88.7648 8.85041 88.7648 9.05165C87.6642 9.26963 86.7102 9.68269 86.1006 10.6516C85.5191 11.5758 85.6235 12.5138 85.9818 13.4325C84.9548 13.6356 84.228 14.5619 84.1832 15.6078C83.6362 16.9782 84.3486 18.5609 85.8624 19.2946C86.1195 19.4191 86.4495 19.6615 86.4993 19.9007C86.677 20.756 87.0542 21.396 87.6053 21.8336C87.3285 24.4959 87.8123 27.0968 90.0656 29.0765C90.0604 29.8774 90.087 30.6791 90.1572 31.4798C90.0994 32.6942 90.1991 33.9238 90.5181 35.1683C90.5428 35.2641 90.5828 35.3427 90.6307 35.4097C90.779 35.7704 91.1457 35.9589 91.7001 35.8709C92.6154 35.7256 93.5089 35.444 94.4467 35.2136C94.43 35.1919 94.414 35.1715 94.3972 35.1501C94.6483 34.9548 94.7941 34.6122 94.6137 34.2489C94.0818 33.1758 93.6992 32.0459 93.46 30.8904C97.7553 28.7436 101.6 25.7892 104.79 22.2386C105.166 22.2166 105.544 22.1865 105.921 22.1486C109.995 22.2124 113.645 19.989 115.474 16.5307C115.712 16.4396 115.951 16.3247 116.189 16.1797C117.198 15.5657 117.67 14.4687 117.584 13.4228C118.938 12.4615 119.804 10.9296 119.979 9.1804C120.174 7.22433 119 5.42832 117.414 4.37272ZM90.3087 25.5951L89.9182 25.1711C89.6386 24.3325 89.5596 23.441 89.6112 22.5302C90.0318 22.5508 90.4671 22.51 90.9374 22.4626C90.6623 23.496 90.4553 24.5421 90.3087 25.5951ZM111.005 18.2001C109.828 19.2554 108.264 19.733 106.679 19.9649C107.428 18.9901 108.134 17.9805 108.787 16.9357C109.609 17.5159 110.667 17.7196 111.679 17.4856C111.481 17.7321 111.26 17.9713 111.005 18.2001Z" fill="black"/>
</svg>
