<?xml version="1.0" encoding="UTF-8"?>
<svg id="Layer_1" data-name="Layer 1" xmlns="http://www.w3.org/2000/svg" version="1.1" viewBox="0 0 1024 1024">
  <defs>
    <style>
      .cls-1 {
        fill: #000;
        stroke-width: 0px;
      }
    </style>
  </defs>
  <path class="cls-1" d="M732.4,564l-96.2-35.8-60.6-110.9c-3.3-5.1-4.5-6.8-7.4-10.2l-6.9-7.7c-24.9-25.1-60.6-28.6-92.6-14.3l-167.4,57.3c-14.3,3.6-24.9,17.9-28.5,32.2l-14.2,132.4c-3.6,21.5,14.2,42.9,35.6,46.5h3.6c21.4,0,39.2-14.3,39.2-35.8l10.7-103.8,64.1-21.5c-10.7,25.1-21.4,50.1-28.5,68-14.2,32.2-14.2,75.1,3.6,110.9l-110.4,257.6c-10.7,25,0,57.3,24.9,68,4.6,1.4,8.2,1.9,10.7,2.1,2.1.2,3.9.1,7.3.1,21.4,0,46.1-12.9,53.2-34.4l81.9-186.1c49.9,89.5,106.9,193.2,106.9,196.8,10.7,17.9,28.5,28.6,46.3,28.6s17.8-3.6,24.9-7.2c24.9-14.3,35.6-46.5,21.4-71.6-3.6-7.2-89-168.2-146-264.8l49.9-110.9,17.8,32.2c3.6,10.7,14.2,14.3,21.4,17.9l110.4,42.9c3.6,0,10.7,3.6,14.2,3.6,17.8,0,32.1-10.7,39.2-28.6,3.6-21.5-7.1-46.5-28.5-53.7M561.4,363.6c42.7,0,78.4-35.8,78.4-78.7s-35.6-78.7-78.4-78.7-78.4,35.8-78.4,78.7,35.6,78.7,78.4,78.7"/>
</svg>