<?xml version="1.0" encoding="utf-8"?>
<svg viewBox="0 0 1024 1024" width="1024px" height="1024px" xmlns="http://www.w3.org/2000/svg">
  <path d="M 732.372 563.95 L 636.201 528.166 L 575.649 417.237 C 572.365 412.171 571.192 410.48 568.289 407.023 L 561.402 399.346 C 536.468 374.295 500.851 370.717 468.795 385.034 L 301.387 442.288 C 287.136 445.863 276.453 460.179 272.891 474.492 L 258.644 606.89 C 255.081 628.361 272.891 649.832 294.262 653.412 L 297.824 653.412 C 319.197 653.412 337.005 639.095 337.005 617.628 L 347.69 513.854 L 411.805 492.383 C 401.117 517.434 390.432 542.478 383.307 560.374 C 369.062 592.578 369.062 635.519 386.87 671.303 L 276.453 928.943 C 265.77 953.993 276.453 986.197 301.387 996.935 C 306.002 998.312 309.599 998.79 312.126 998.995 C 314.243 999.152 315.977 999.107 319.39 999.114 C 340.762 999.114 365.499 986.197 372.624 964.727 L 454.548 778.652 C 504.413 868.11 561.402 971.884 561.402 975.464 C 572.086 993.354 589.899 1004.089 607.708 1004.089 C 614.829 1004.089 625.517 1000.513 632.639 996.935 C 657.573 982.618 668.257 950.413 654.01 925.364 C 650.448 918.209 564.965 757.181 507.976 660.565 L 557.84 549.637 L 575.649 581.841 C 579.211 592.578 589.899 596.158 597.02 599.733 L 707.438 642.674 C 711 642.674 718.125 646.254 721.688 646.254 C 739.497 646.254 753.744 635.519 760.869 617.628 C 764.428 596.158 753.744 571.108 732.372 563.95 M 561.402 363.563 C 604.146 363.563 639.764 327.779 639.764 284.839 C 639.764 241.897 604.146 206.114 561.402 206.114 C 518.659 206.114 483.041 241.897 483.041 284.839 C 483.041 327.779 518.659 363.563 561.402 363.563" fill="#ffffff" p-id="1475" style=""/>
  <g id="SVGRepo_bgCarrier" stroke-width="0" transform="matrix(1, 0, 0, 1, 901.1702270507812, 348.8346862792969)"/>
  <g id="SVGRepo_tracerCarrier" stroke-linecap="round" stroke-linejoin="round" transform="matrix(1, 0, 0, 1, 901.1702270507812, 348.8346862792969)"/>
  <path d="M 835.192 13.058 C 824.655 4.298 810.352 8.891 791.928 24.701 C 715.828 90.008 589.148 203.841 509.496 293.804 L 530.566 314.874 C 612.776 227.589 733.936 109.35 835.191 13.057 L 835.192 13.058 Z M 496.715 306.478 L 479.545 323.506 L 501.847 345.809 C 507.16 339.992 512.634 334.059 518.257 328.019 L 496.715 306.478 Z M 439.919 306.508 L 427.191 319.236 L 506.387 398.432 L 519.115 385.704 L 439.919 306.508 Z M 442.861 360.693 L 382.386 421.168 C 382.758 432.658 393.094 443.504 405.014 443.795 L 465.488 383.321 L 457.351 375.185 C 460.008 379.449 460.191 383.89 457.808 386.282 C 454.684 389.405 448.254 388.04 443.445 383.232 C 448.253 388.04 449.619 394.472 446.495 397.595 C 443.37 400.719 436.94 399.355 432.131 394.545 C 436.941 399.355 438.305 405.785 435.181 408.908 C 432.057 412.033 425.626 410.668 420.818 405.858 C 425.626 410.668 426.991 417.098 423.868 420.222 C 420.743 423.346 414.312 421.982 409.504 417.172 C 414.312 421.982 415.678 428.412 412.554 431.536 C 409.429 434.66 402.999 433.296 398.19 428.486 C 393.382 423.678 392.017 417.246 395.14 414.123 C 398.265 411 404.696 412.365 409.504 417.173 C 404.696 412.365 403.331 405.935 406.454 402.811 C 409.579 399.686 416.009 401.051 420.818 405.861 C 416.008 401.051 414.644 394.621 417.768 391.497 C 420.893 388.373 427.323 389.737 432.131 394.547 C 427.323 389.737 425.958 383.307 429.081 380.183 C 432.206 377.059 438.637 378.423 443.445 383.233 C 438.637 378.423 437.272 371.993 440.395 368.869 C 442.785 366.486 447.223 366.667 451.485 369.319 L 442.861 360.693 Z" style="fill: rgb(255, 255, 255); transform-origin: 608.789px 226.232px;" transform="matrix(-0.902256011963, -0.431201010942, 0.431201010942, -0.902256011963, 0.00011727785, 0.000014425723)"/>
</svg>