<?xml version="1.0" encoding="utf-8"?>
<svg viewBox="0 0 1024 1024" width="1024px" height="1024px" xmlns="http://www.w3.org/2000/svg">
  <g transform="matrix(1, 0, 0, 1, 8381.66796875, 0)">
    <path d="M -7649.595 563.95 L -7745.766 528.166 L -7806.318 417.237 C -7809.602 412.171 -7810.775 410.48 -7813.678 407.023 L -7820.565 399.346 C -7845.499 374.295 -7881.116 370.717 -7913.172 385.034 L -8080.58 442.288 C -8094.831 445.863 -8105.514 460.179 -8109.076 474.492 L -8123.323 606.89 C -8126.886 628.361 -8109.076 649.832 -8087.705 653.412 L -8084.143 653.412 C -8062.77 653.412 -8044.962 639.095 -8044.962 617.628 L -8034.277 513.854 L -7970.162 492.383 C -7980.85 517.434 -7991.535 542.478 -7998.66 560.374 C -8012.905 592.578 -8012.905 635.519 -7995.097 671.303 L -8105.514 928.943 C -8116.197 953.993 -8105.514 986.197 -8080.58 996.935 C -8075.965 998.312 -8072.368 998.79 -8069.841 998.995 C -8067.724 999.152 -8065.99 999.107 -8062.577 999.114 C -8041.205 999.114 -8016.468 986.197 -8009.343 964.727 L -7927.419 778.652 C -7877.554 868.11 -7820.565 971.884 -7820.565 975.464 C -7809.881 993.354 -7792.068 1004.089 -7774.259 1004.089 C -7767.138 1004.089 -7756.45 1000.513 -7749.328 996.935 C -7724.394 982.618 -7713.71 950.413 -7727.957 925.364 C -7731.519 918.209 -7817.002 757.181 -7873.991 660.565 L -7824.127 549.637 L -7806.318 581.841 C -7802.756 592.578 -7792.068 596.158 -7784.947 599.733 L -7674.529 642.674 C -7670.967 642.674 -7663.842 646.254 -7660.279 646.254 C -7642.47 646.254 -7628.223 635.519 -7621.098 617.628 C -7617.539 596.158 -7628.223 571.108 -7649.595 563.95 M -7820.565 363.563 C -7777.821 363.563 -7742.203 327.779 -7742.203 284.839 C -7742.203 241.897 -7777.821 206.114 -7820.565 206.114 C -7863.308 206.114 -7898.926 241.897 -7898.926 284.839 C -7898.926 327.779 -7863.308 363.563 -7820.565 363.563" fill="#ffffff" p-id="1475" style=""/>
    <path d="M -7937.448 71.99 C -7997.369 71.69 -8010.712 168.797 -7926.684 183.021 C -7942.125 183.3 -7955.673 187.265 -7974.708 196.614 C -8026.141 221.868 -8015.744 303.864 -7963.292 294.984 C -7945.244 291.928 -7936.488 268.642 -7962.834 260.765 C -7954.19 276.263 -7977.473 285.418 -7984.769 261.779 C -7990.663 242.68 -7973.701 222.568 -7957.306 217.288 C -7941.341 212.148 -7928.39 211.604 -7914.139 214.23 C -7933.288 232.155 -7943.737 256.347 -7936.32 278.937 C -7913.016 349.91 -7835.746 322.13 -7851.084 275.42 C -7856.499 258.929 -7872.757 251.078 -7886.676 270.104 C -7868.271 265.47 -7860.27 290.387 -7877.156 295.931 C -7890.951 300.461 -7908.672 288.851 -7911.719 274.291 C -7915.812 254.72 -7901.371 233.886 -7883.046 224.435 C -7871.438 242.949 -7862.731 249.915 -7839.487 262.219 C -7794.555 286.001 -7728.02 243.093 -7764.163 204.365 C -7776.006 191.675 -7792.728 188.652 -7799.494 211.235 C -7783.693 200.719 -7767.697 225.262 -7781.763 236.13 C -7793.252 245.007 -7813.955 246.146 -7827.006 239.009 C -7843.126 230.193 -7855.161 219.225 -7863.744 204.185 C -7833.872 211.35 -7801.151 203.627 -7788.895 180.452 C -7764.964 135.202 -7792.583 100.647 -7819.842 100.172 C -7830.508 99.985 -7841.121 105.007 -7848.565 116.66 C -7857.908 131.287 -7853.702 148.867 -7830.163 147.606 C -7845.4 136.286 -7831.157 114.305 -7816.179 123.873 C -7803.942 131.689 -7804.405 151.028 -7811.075 164.323 C -7819.013 180.146 -7842.781 190.88 -7860.833 177.229 C -7862.407 174.24 -7863.745 171.114 -7864.905 167.889 C -7860.199 164.492 -7857.12 158.977 -7857.12 152.776 C -7857.12 143.473 -7864.056 135.691 -7873.003 134.342 C -7878.113 109.671 -7885.22 85.848 -7917.412 75.408 C -7924.552 73.092 -7931.25 72.02 -7937.449 71.99 L -7937.448 71.99 Z M -7875.766 143.911 C -7870.812 143.911 -7866.9 147.823 -7866.9 152.777 C -7866.9 157.73 -7870.812 161.642 -7875.765 161.642 C -7880.718 161.642 -7884.614 157.73 -7884.614 152.776 C -7884.614 147.823 -7880.718 143.911 -7875.765 143.911 L -7875.766 143.911 Z M -7910 149.407 C -7905.047 149.407 -7901.135 153.319 -7901.135 158.273 C -7901.135 163.226 -7905.047 167.138 -7910.001 167.138 C -7914.954 167.138 -7918.866 163.226 -7918.866 158.272 C -7918.866 153.319 -7914.954 149.407 -7910 149.407 Z" style="fill: rgb(255, 255, 255);"/>
  </g>
  <g id="SVGRepo_bgCarrier" stroke-width="0" transform="matrix(1, 0, 0, 1, 901.1702270507812, 348.8346862792969)"/>
  <g id="SVGRepo_tracerCarrier" stroke-linecap="round" stroke-linejoin="round" transform="matrix(1, 0, 0, 1, 901.1702270507812, 348.8346862792969)"/>
</svg>