<?xml version="1.0" encoding="utf-8"?>
<svg viewBox="0 0 1024 1024" width="1024px" height="1024px" xmlns="http://www.w3.org/2000/svg">
  <g transform="matrix(1, 0, 0, 1, 4886.73046875, 0)">
    <path d="M -4154.03 563.95 L -4250.201 528.166 L -4310.753 417.237 C -4314.037 412.171 -4315.21 410.48 -4318.113 407.023 L -4325 399.346 C -4349.934 374.295 -4385.551 370.717 -4417.607 385.034 L -4585.015 442.288 C -4599.266 445.863 -4609.949 460.179 -4613.511 474.492 L -4627.758 606.89 C -4631.321 628.361 -4613.511 649.832 -4592.14 653.412 L -4588.578 653.412 C -4567.205 653.412 -4549.397 639.095 -4549.397 617.628 L -4538.712 513.854 L -4474.597 492.383 C -4485.285 517.434 -4495.97 542.478 -4503.095 560.374 C -4517.34 592.578 -4517.34 635.519 -4499.532 671.303 L -4609.949 928.943 C -4620.632 953.993 -4609.949 986.197 -4585.015 996.935 C -4580.4 998.312 -4576.803 998.79 -4574.276 998.995 C -4572.159 999.152 -4570.425 999.107 -4567.012 999.114 C -4545.64 999.114 -4520.903 986.197 -4513.778 964.727 L -4431.854 778.652 C -4381.989 868.11 -4325 971.884 -4325 975.464 C -4314.316 993.354 -4296.503 1004.089 -4278.694 1004.089 C -4271.573 1004.089 -4260.885 1000.513 -4253.763 996.935 C -4228.829 982.618 -4218.145 950.413 -4232.392 925.364 C -4235.954 918.209 -4321.437 757.181 -4378.426 660.565 L -4328.562 549.637 L -4310.753 581.841 C -4307.191 592.578 -4296.503 596.158 -4289.382 599.733 L -4178.964 642.674 C -4175.402 642.674 -4168.277 646.254 -4164.714 646.254 C -4146.905 646.254 -4132.658 635.519 -4125.533 617.628 C -4121.974 596.158 -4132.658 571.108 -4154.03 563.95 M -4325 363.563 C -4282.256 363.563 -4246.638 327.779 -4246.638 284.839 C -4246.638 241.897 -4282.256 206.114 -4325 206.114 C -4367.743 206.114 -4403.361 241.897 -4403.361 284.839 C -4403.361 327.779 -4367.743 363.563 -4325 363.563" fill="#ffffff" p-id="1475" style=""/>
    <g transform="matrix(-1, 0, 0, 1, -2834.745605, -284.522064)" style="">
      <path d="M 1594.99 666.448 C 1594.99 666.448 1597.43 676.488 1597.05 677.898 C 1596.67 679.308 1589.73 680.428 1585.69 682.498 C 1583.04 683.858 1578.77 686.888 1581.37 689.338 C 1582.78 690.668 1586.72 687.308 1598.55 686.628 C 1610.56 685.938 1612.68 686.918 1612.06 684.378 C 1611.45 681.848 1608.26 681.558 1605.58 680.438 C 1604.69 680.068 1603.66 679.478 1603.23 678.838 C 1602.82 678.228 1603.42 667.858 1603.42 667.858 L 1594.99 666.448 L 1594.99 666.448 Z" style="fill: rgb(218, 167, 85);"/>
      <path d="M 1617.14 673.488 C 1617.14 673.488 1617.42 683.638 1617.42 684.288 C 1617.42 685.238 1615.1 686.378 1611.65 687.148 C 1608.2 687.918 1601.37 689.198 1601.28 693.568 C 1601.22 696.258 1614.4 692.618 1621.93 692.728 C 1629.46 692.838 1634.29 693.828 1633.94 690.668 C 1633.66 688.138 1629.74 686.988 1627.63 686.528 C 1625.52 686.068 1624.56 685.038 1624.5 683.778 C 1624.46 682.958 1624.64 673.708 1624.64 673.708 L 1617.14 673.488 L 1617.14 673.488 Z" style="fill: rgb(218, 167, 85);"/>
      <path d="M 1596.87 578.978 L 1605.93 578.368 C 1605.93 578.368 1610.97 579.998 1615.76 586.938 C 1622.12 596.168 1621.28 613.048 1621.28 613.048 L 1638.74 659.598 L 1640.85 674.988 C 1640.85 674.988 1625.23 677.448 1609.93 675.458 C 1591.91 673.108 1573.33 656.778 1573.61 632.378 C 1573.89 607.978 1593.23 584.418 1593.23 584.418 L 1596.87 578.978 L 1596.87 578.978 Z" style="fill: rgb(218, 194, 85);"/>
      <path d="M 1576.13 587.898 C 1576.13 587.898 1569.18 590.058 1567.21 597.848 C 1565.24 605.638 1568.53 612.888 1569.98 613.378 C 1570.54 613.568 1572.28 610.048 1572.28 610.048 C 1572.28 610.048 1574.72 612.868 1575.94 613.518 C 1577.16 614.178 1577.77 614.668 1578.85 614.598 C 1580.96 614.458 1584.06 608.308 1583.97 604.178 L 1585.05 583.948 L 1576.13 587.898 L 1576.13 587.898 Z" style="fill: rgb(218, 167, 85);"/>
      <path d="M 1584.83 599.058 C 1584.83 599.058 1593.3 597.648 1596.68 594.738 C 1600.06 591.828 1604 589.198 1605.31 583.948 C 1606.11 580.748 1606.15 578.508 1606.15 578.508 C 1606.15 578.508 1594.34 571.658 1583.64 577.288 C 1572.94 582.918 1575.47 590.568 1575.47 590.568 L 1584.83 599.058 L 1584.83 599.058 Z" style="fill: rgb(218, 85, 85);"/>
      <path d="M 1584.48 600.188 C 1584.48 600.188 1577.63 604.228 1576.88 604.788 C 1576.13 605.348 1573.68 606.568 1572.56 607.508 C 1570.78 609.008 1569.18 612.388 1569.84 613.238 C 1570.5 614.078 1571.44 611.458 1574.06 609.858 C 1576.68 608.258 1581.19 605.728 1582.41 605.068 C 1583.63 604.408 1584.01 604.038 1584.01 604.038 L 1584.48 600.188 L 1584.48 600.188 Z" style="fill: rgb(218, 145, 85);"/>
      <path d="M 1586.81 598.428 C 1587.28 597.438 1587.49 595.168 1584.3 591.178 C 1580.55 586.488 1575.29 586.298 1575.29 586.298 L 1574.73 588.178 L 1580.55 593.998 L 1583.78 600.968 C 1583.78 600.968 1585.84 600.468 1586.81 598.428 L 1586.81 598.428 Z" style="fill: rgb(255, 255, 255);"/>
      <path d="M 1570.87 591.368 C 1570.87 591.368 1575.19 591.648 1578.19 594.278 C 1579.97 595.838 1582.66 599.178 1583.32 600.688 C 1583.98 602.198 1586.23 598.018 1584.45 595.198 C 1582.67 592.378 1580.54 589.548 1576.6 588.178 C 1573.76 587.198 1571.06 589.588 1570.87 591.368 L 1570.87 591.368 Z" style="fill: rgb(218, 194, 85);"/>
      <path d="M 1604.47 596.908 C 1604.47 596.908 1601 588.088 1593.86 588.458 C 1586.66 588.838 1585.55 594.188 1585.88 597.378 C 1586.26 601.068 1588.7 603.108 1594.33 602.918 C 1599.97 602.718 1604.47 596.908 1604.47 596.908 L 1604.47 596.908 Z" style="fill: rgb(255, 255, 255);"/>
      <path d="M 1599.22 595.778 C 1599.22 598.058 1596.74 600.098 1594.48 600.098 C 1592.23 600.098 1590.4 598.248 1590.4 595.968 C 1590.4 593.688 1591.71 591.178 1594.9 590.998 C 1598.27 590.788 1599.22 593.498 1599.22 595.778 L 1599.22 595.778 Z" style=""/>
      <path d="M 1641.36 651.718 C 1641.36 651.718 1643.61 656.788 1652.25 662.418 C 1659.58 667.198 1663.14 670.118 1668.21 671.898 C 1673.28 673.678 1673.47 674.148 1673.28 675.088 C 1673.09 676.028 1665.21 682.128 1656.57 681.378 C 1647.94 680.628 1643.81 677.248 1641.18 675.468 C 1638.55 673.688 1633.58 661.108 1633.58 661.108 L 1641.36 651.718 L 1641.36 651.718 Z" style="fill: rgb(218, 167, 85);"/>
      <path d="M 1621.32 612.808 C 1621.32 612.808 1609.35 616.328 1604.1 624.308 C 1599.7 630.988 1600.09 642.348 1604.57 650.778 C 1610.11 661.198 1621.56 668.608 1627.66 671.428 C 1633.76 674.248 1642.11 675.648 1645.77 675.278 C 1649.43 674.908 1642.49 649.658 1635.82 636.138 C 1629.32 622.948 1621.32 612.808 1621.32 612.808 Z" style="fill: rgb(218, 194, 85);"/>
    </g>
  </g>
  <g id="SVGRepo_bgCarrier" stroke-width="0" transform="matrix(1, 0, 0, 1, 901.1702270507812, 348.8346862792969)"/>
  <g id="SVGRepo_tracerCarrier" stroke-linecap="round" stroke-linejoin="round" transform="matrix(1, 0, 0, 1, 901.1702270507812, 348.8346862792969)"/>
</svg>