<?xml version="1.0" encoding="utf-8"?>
<svg viewBox="0 0 1024 1024" width="1024px" height="1024px" xmlns="http://www.w3.org/2000/svg">
  <g transform="matrix(1, 0, 0, 1, 2534.5078125, 0)">
    <path d="M -1802.38 563.95 L -1898.551 528.166 L -1959.103 417.237 C -1962.387 412.171 -1963.56 410.48 -1966.463 407.023 L -1973.35 399.346 C -1998.284 374.295 -2033.901 370.717 -2065.957 385.034 L -2233.365 442.288 C -2247.616 445.863 -2258.299 460.179 -2261.861 474.492 L -2276.108 606.89 C -2279.671 628.361 -2261.861 649.832 -2240.49 653.412 L -2236.928 653.412 C -2215.555 653.412 -2197.747 639.095 -2197.747 617.628 L -2187.062 513.854 L -2122.947 492.383 C -2133.635 517.434 -2144.32 542.478 -2151.445 560.374 C -2165.69 592.578 -2165.69 635.519 -2147.882 671.303 L -2258.299 928.943 C -2268.982 953.993 -2258.299 986.197 -2233.365 996.935 C -2228.75 998.312 -2225.153 998.79 -2222.626 998.995 C -2220.509 999.152 -2218.775 999.107 -2215.362 999.114 C -2193.99 999.114 -2169.253 986.197 -2162.128 964.727 L -2080.204 778.652 C -2030.339 868.11 -1973.35 971.884 -1973.35 975.464 C -1962.666 993.354 -1944.853 1004.089 -1927.044 1004.089 C -1919.923 1004.089 -1909.235 1000.513 -1902.113 996.935 C -1877.179 982.618 -1866.495 950.413 -1880.742 925.364 C -1884.304 918.209 -1969.787 757.181 -2026.776 660.565 L -1976.912 549.637 L -1959.103 581.841 C -1955.541 592.578 -1944.853 596.158 -1937.732 599.733 L -1827.314 642.674 C -1823.752 642.674 -1816.627 646.254 -1813.064 646.254 C -1795.255 646.254 -1781.008 635.519 -1773.883 617.628 C -1770.324 596.158 -1781.008 571.108 -1802.38 563.95 M -1973.35 363.563 C -1930.606 363.563 -1894.988 327.779 -1894.988 284.839 C -1894.988 241.897 -1930.606 206.114 -1973.35 206.114 C -2016.093 206.114 -2051.711 241.897 -2051.711 284.839 C -2051.711 327.779 -2016.093 363.563 -1973.35 363.563" fill="#ffffff" p-id="1475" style=""/>
    <g id="g-4" transform="matrix(-0.771326, 0, 0, 0.771326, -1829.128174, 121.117996)" style="">
      <path d="M 266.576 193.82 C 264.877 193.82 263.5 192.443 263.5 190.744 C 263.5 177.715 274.062 167.153 287.091 167.153 L 287.129 167.153 C 288.304 167.153 289.41 166.601 290.116 165.662 C 290.822 164.723 291.046 163.507 290.72 162.378 C 279.206 122.463 245.393 92.003 203.639 85.362 C 201.087 78.337 194.374 73.311 186.47 73.311 C 178.56 73.311 171.84 78.337 169.286 85.363 C 117.529 93.597 77.967 138.427 77.967 192.502 L 77.967 196.654 L 12.5 196.654 C 5.597 196.654 0 202.251 0 209.154 C 0 216.057 5.597 221.654 12.5 221.654 L 145.164 221.654 C 145.171 221.654 145.177 221.653 145.183 221.653 L 294.197 221.651 C 296.277 221.651 297.964 219.964 297.964 217.884 L 297.964 197.587 C 297.964 195.507 296.277 193.82 294.197 193.82 L 266.576 193.82 Z" style="stroke-width: 20.7435px; fill: rgb(218, 85, 85);"/>
    </g>
  </g>
  <g id="SVGRepo_bgCarrier" stroke-width="0" transform="matrix(1, 0, 0, 1, 901.1702270507812, 348.8346862792969)"/>
  <g id="SVGRepo_tracerCarrier" stroke-linecap="round" stroke-linejoin="round" transform="matrix(1, 0, 0, 1, 901.1702270507812, 348.8346862792969)"/>
</svg>