<?xml version="1.0" encoding="utf-8"?>
<svg viewBox="0 0 1024 1024" width="1024px" height="1024px" xmlns="http://www.w3.org/2000/svg">
  <g transform="matrix(1, 0, 0, 1, 7225.022460937501, 0)">
    <path d="M -6650.452 34.548 C -6660.183 38.5 -6667.863 44.393 -6672.517 51.4 L -6680.952 35.687 C -6686.087 63.785 -6688.081 89.832 -6662.73 98.076 C -6668.843 119.111 -6672.517 140.157 -6674.51 161.177 L -6686.219 139.342 C -6687.841 130.964 -6691.696 121.862 -6696.095 112.579 L -6705.99 154.788 C -6710.097 141.994 -6715.383 129.347 -6722.201 116.937 C -6708.273 92.328 -6713.014 76.754 -6739.907 71.793 C -6740.2 73.524 -6740.226 77.114 -6740.226 77.114 L -6751.544 72.131 L -6752.878 83.43 L -6758.199 80.779 C -6761.293 104.84 -6758.268 123.456 -6731.649 121.832 C -6729.54 125.657 -6727.59 129.502 -6725.776 133.38 L -6786.065 115.194 C -6768.263 140.959 -6749.523 162.32 -6721.987 142.011 C -6715.731 157.19 -6711.461 172.728 -6708.463 188.545 L -6745.351 165.661 C -6738.021 186.199 -6729.291 203.975 -6707.235 195.52 C -6706.53 199.76 -6705.932 209.823 -6705.377 214.101 L -6694.618 208.297 C -6696.188 195.798 -6698.339 183.344 -6701.398 170.999 C -6696.724 168.667 -6693.227 165.958 -6690.721 162.92 C -6688.618 169.296 -6684.11 174.105 -6675.667 176.355 C -6676.291 187.009 -6676.524 197.66 -6676.485 208.296 L -6665.844 208.296 C -6665.852 205.978 -6665.846 203.672 -6665.827 201.356 C -6641.974 197.477 -6643.346 177.168 -6647.373 155.125 L -6665.576 189.077 C -6665.141 175.582 -6664.157 162.128 -6662.391 148.701 C -6632.488 151.573 -6627.574 126.617 -6625.307 98.716 L -6660.504 136.209 C -6658.528 124.5 -6655.914 112.811 -6652.532 101.153 C -6631.153 103.77 -6608.751 80.787 -6609.665 61.292 L -6616.747 65.688 C -6617.347 58.878 -6620.548 51.162 -6626.499 42.518 C -6630.79 45.567 -6634.473 49.678 -6637.798 54.157 L -6640.131 43.854 L -6646.786 52.165 C -6646.968 46.203 -6648.022 40.338 -6650.452 34.548 Z M -6546.689 91.065 C -6549.533 91.069 -6552.942 91.554 -6557.081 92.719 C -6564.675 94.857 -6572.752 99.695 -6569.823 114.144 C -6583.767 121.619 -6595.68 131.866 -6605.27 144.413 L -6605.379 144.413 C -6605.361 144.438 -6605.34 144.458 -6605.324 144.484 C -6605.78 145.082 -6606.232 145.674 -6606.677 146.281 L -6593.544 102.808 C -6619.703 120.884 -6641.342 139.915 -6619.418 168.151 C -6624.936 180.277 -6628.834 193.741 -6630.985 208.296 L -6619.7 215.282 L -6609.328 208.296 C -6595.36 204.096 -6592.473 187.548 -6591 169.432 L -6618.421 198.634 C -6614.568 181.237 -6607.93 166.042 -6598.829 153.381 C -6577.915 177.379 -6554.88 161.864 -6531.617 142.1 L -6591.176 143.968 C -6583.72 135.834 -6575.033 129.05 -6565.233 123.753 C -6558.748 132.147 -6549.06 131.823 -6542.117 128.201 C -6527.688 120.676 -6532.185 112.348 -6520.319 102.061 C -6532.215 105.059 -6531.338 91.038 -6546.689 91.064 L -6546.689 91.065 Z" style="fill: rgb(175, 218, 85);"/>
    <g>
      <path d="M -6492.692 563.95 L -6588.863 528.166 L -6649.415 417.237 C -6652.699 412.171 -6653.872 410.48 -6656.775 407.023 L -6663.662 399.346 C -6688.596 374.295 -6724.213 370.717 -6756.269 385.034 L -6923.677 442.288 C -6937.928 445.863 -6948.611 460.179 -6952.173 474.492 L -6966.42 606.89 C -6969.983 628.361 -6952.173 649.832 -6930.802 653.412 L -6927.24 653.412 C -6905.867 653.412 -6888.059 639.095 -6888.059 617.628 L -6877.374 513.854 L -6813.259 492.383 C -6823.947 517.434 -6834.632 542.478 -6841.757 560.374 C -6856.002 592.578 -6856.002 635.519 -6838.194 671.303 L -6948.611 928.943 C -6959.294 953.993 -6948.611 986.197 -6923.677 996.935 C -6919.062 998.312 -6915.465 998.79 -6912.938 998.995 C -6910.821 999.152 -6909.087 999.107 -6905.674 999.114 C -6884.302 999.114 -6859.565 986.197 -6852.44 964.727 L -6770.516 778.652 C -6720.651 868.11 -6663.662 971.884 -6663.662 975.464 C -6652.978 993.354 -6635.165 1004.089 -6617.356 1004.089 C -6610.235 1004.089 -6599.547 1000.513 -6592.425 996.935 C -6567.491 982.618 -6556.807 950.413 -6571.054 925.364 C -6574.616 918.209 -6660.099 757.181 -6717.088 660.565 L -6667.224 549.637 L -6649.415 581.841 C -6645.853 592.578 -6635.165 596.158 -6628.044 599.733 L -6517.626 642.674 C -6514.064 642.674 -6506.939 646.254 -6503.376 646.254 C -6485.567 646.254 -6471.32 635.519 -6464.195 617.628 C -6460.636 596.158 -6471.32 571.108 -6492.692 563.95 M -6663.662 363.563 C -6620.918 363.563 -6585.3 327.779 -6585.3 284.839 C -6585.3 241.897 -6620.918 206.114 -6663.662 206.114 C -6706.405 206.114 -6742.023 241.897 -6742.023 284.839 C -6742.023 327.779 -6706.405 363.563 -6663.662 363.563" fill="#ffffff" p-id="1475" style=""/>
      <path d="M -6731.605 121.805 C -6727.798 120.672 -6725.39 119.474 -6722.157 116.91 C -6708.229 92.301 -6712.97 76.727 -6739.863 71.766 C -6740.156 73.497 -6740.182 77.087 -6740.182 77.087 L -6751.5 72.104 L -6752.834 83.403 L -6758.155 80.752 C -6761.249 104.813 -6758.224 123.429 -6731.605 121.805 Z" style="fill: rgb(218, 85, 85);"/>
      <path d="M -6546.773 91.071 C -6549.617 91.075 -6553.026 91.56 -6557.165 92.725 C -6564.759 94.863 -6572.836 99.701 -6569.907 114.15 C -6569.265 117.674 -6568.441 120.576 -6565.317 123.759 C -6558.832 132.153 -6549.144 131.829 -6542.201 128.207 C -6527.772 120.682 -6532.269 112.354 -6520.403 102.067 C -6532.299 105.065 -6531.422 91.044 -6546.773 91.07 L -6546.773 91.071 Z" style="fill: rgb(218, 85, 146);"/>
      <path d="M -6650.486 34.551 C -6660.217 38.503 -6667.897 44.396 -6672.551 51.403 L -6680.986 35.69 C -6686.121 63.788 -6688.115 89.835 -6662.764 98.079 C -6659.862 99.765 -6655.749 100.663 -6652.566 101.156 C -6631.187 103.773 -6608.785 80.79 -6609.699 61.295 L -6616.781 65.691 C -6617.381 58.881 -6620.582 51.165 -6626.533 42.521 C -6630.824 45.57 -6634.507 49.681 -6637.832 54.16 L -6640.165 43.857 L -6646.82 52.168 C -6647.002 46.206 -6648.056 40.341 -6650.486 34.551 Z" style="fill: rgb(218, 167, 85);"/>
    </g>
  </g>
  <g id="SVGRepo_bgCarrier" stroke-width="0" transform="matrix(1, 0, 0, 1, 901.1702270507812, 348.8346862792969)"/>
  <g id="SVGRepo_tracerCarrier" stroke-linecap="round" stroke-linejoin="round" transform="matrix(1, 0, 0, 1, 901.1702270507812, 348.8346862792969)"/>
</svg>