<?xml version="1.0" encoding="utf-8"?>
<svg viewBox="0 0 1024 1024" width="1024px" height="1024px" xmlns="http://www.w3.org/2000/svg">
  <defs>
    <radialGradient gradientUnits="userSpaceOnUse" cx="-3120.566" cy="286.372" r="98.691" id="gradient-1">
      <stop offset="0" style="stop-color: rgb(100% 100% 100% / 0.46)"/>
      <stop offset="1" style="stop-color: rgb(56.687% 56.687% 56.687% / 0.46)"/>
    </radialGradient>
  </defs>
  <g transform="matrix(1, 0, 0, 1, 3716.67626953125, 2.2737367544323206e-13)">
    <g>
      <path d="M -2983.847 563.95 L -3080.018 528.166 L -3140.57 417.237 C -3143.854 412.171 -3145.027 410.48 -3147.93 407.023 L -3154.817 399.346 C -3179.751 374.295 -3215.368 370.717 -3247.424 385.034 L -3414.832 442.288 C -3429.083 445.863 -3439.766 460.179 -3443.328 474.492 L -3457.575 606.89 C -3461.138 628.361 -3443.328 649.832 -3421.957 653.412 L -3418.395 653.412 C -3397.022 653.412 -3379.214 639.095 -3379.214 617.628 L -3368.529 513.854 L -3304.414 492.383 C -3315.102 517.434 -3325.787 542.478 -3332.912 560.374 C -3347.157 592.578 -3347.157 635.519 -3329.349 671.303 L -3439.766 928.943 C -3450.449 953.993 -3439.766 986.197 -3414.832 996.935 C -3410.217 998.312 -3406.62 998.79 -3404.093 998.995 C -3401.976 999.152 -3400.242 999.107 -3396.829 999.114 C -3375.457 999.114 -3350.72 986.197 -3343.595 964.727 L -3261.671 778.652 C -3211.806 868.11 -3154.817 971.884 -3154.817 975.464 C -3144.133 993.354 -3126.32 1004.089 -3108.511 1004.089 C -3101.39 1004.089 -3090.702 1000.513 -3083.58 996.935 C -3058.646 982.618 -3047.962 950.413 -3062.209 925.364 C -3065.771 918.209 -3151.254 757.181 -3208.243 660.565 L -3158.379 549.637 L -3140.57 581.841 C -3137.008 592.578 -3126.32 596.158 -3119.199 599.733 L -3008.781 642.674 C -3005.219 642.674 -2998.094 646.254 -2994.531 646.254 C -2976.722 646.254 -2962.475 635.519 -2955.35 617.628 C -2951.791 596.158 -2962.475 571.108 -2983.847 563.95 M -3154.817 363.563 C -3112.073 363.563 -3076.455 327.779 -3076.455 284.839 C -3076.455 241.897 -3112.073 206.114 -3154.817 206.114 C -3197.56 206.114 -3233.178 241.897 -3233.178 284.839 C -3233.178 327.779 -3197.56 363.563 -3154.817 363.563" fill="#ffffff" p-id="1475" style=""/>
      <ellipse style="fill: url('#gradient-1');" cx="-3154.691" cy="284.785" rx="98.691" ry="98.691"/>
      <path style="fill: none; stroke: rgb(255, 255, 255); stroke-width: 32px;" d="M -3218.634 287.096 C -3254.454 286.395 -3286.174 309.088 -3299.356 337.021 C -3313.341 366.656 -3309.211 401.086 -3299.348 425.458"/>
      <path style="fill: rgb(255, 255, 255);" d="M -3213.15 205.221 C -3172.262 175.538 -3119.906 182.389 -3087.543 211.979 C -3069.389 228.578 -3061.498 251.7 -3061.498 251.7 C -3061.498 251.7 -3092.971 249.754 -3107.34 250.514 C -3143.479 252.424 -3171.963 262.842 -3178.549 290.848 C -3182.733 308.636 -3168.442 333.526 -3132.509 353.176 C -3123.309 358.207 -3100.6 367.032 -3100.6 367.032 C -3100.6 367.032 -3122.767 382.388 -3135.437 382.246 C -3173.566 381.816 -3213.731 368.904 -3236.057 340.23 C -3271.073 295.257 -3252.901 234.081 -3213.15 205.221 Z"/>
      <ellipse style="stroke-width: 16px; fill: rgb(255, 255, 255); stroke: rgb(231, 231, 231);" cx="-3182.667" cy="287.497" rx="21.16" ry="21.16"/>
    </g>
    <path style="fill: rgb(255, 255, 255);" d="M -3141.638 406.451 L -3247.544 379.356 C -3251.364 355.549 -3225.373 332.797 -3225.373 332.797 L -3132.847 368.713 C -3132.847 368.713 -3127.247 390.969 -3141.638 406.451 Z"/>
  </g>
  <g id="SVGRepo_bgCarrier" stroke-width="0" transform="matrix(1, 0, 0, 1, 901.1702270507812, 348.8346862792971)"/>
  <g id="SVGRepo_tracerCarrier" stroke-linecap="round" stroke-linejoin="round" transform="matrix(1, 0, 0, 1, 901.1702270507812, 348.8346862792971)"/>
</svg>