<?xml version="1.0" encoding="utf-8"?>
<svg viewBox="0 0 1024 1024" width="1024px" height="1024px" xmlns="http://www.w3.org/2000/svg">
  <g transform="matrix(1, 0, 0, 1, 1342.9403076171875, 0)">
    <path style="stroke-width: 16px; fill: rgb(218, 85, 85);" d="M -730.735 218.84 C -694.469 181.012 -686.476 105.698 -699.138 133.283 C -712.374 162.117 -740.427 189.23 -748.774 171.54 C -752.025 164.65 -752.817 158.519 -751.994 109.092 C -751.428 75.101 -757.403 63.957 -781.047 171.668 C -783.106 181.05 -800.011 182.769 -811.305 86.391 C -815.109 53.931 -828.122 90.24 -828.237 185.151 C -828.257 201.955 -849.911 165.964 -876.774 141.291 C -893.631 125.808 -926.929 74.914 -867.362 207.484 C -858.781 226.581 -861.556 224.869 -936.947 198.063 C -974.236 184.804 -931.936 211.35 -900.456 244.856 C -882.362 264.114 -860.653 266.089 -935.902 301.074 C -983.309 323.115 -950.088 317.558 -858.969 310.085 C -801.085 305.338 -755.451 235.974 -730.735 218.84 Z"/>
    <path d="M -610.391 563.95 L -706.562 528.166 L -767.114 417.237 C -770.398 412.171 -771.571 410.48 -774.474 407.023 L -781.361 399.346 C -806.295 374.295 -841.912 370.717 -873.968 385.034 L -1041.376 442.288 C -1055.627 445.863 -1066.31 460.179 -1069.872 474.492 L -1084.119 606.89 C -1087.682 628.361 -1069.872 649.832 -1048.501 653.412 L -1044.939 653.412 C -1023.566 653.412 -1005.758 639.095 -1005.758 617.628 L -995.073 513.854 L -930.958 492.383 C -941.646 517.434 -952.331 542.478 -959.456 560.374 C -973.701 592.578 -973.701 635.519 -955.893 671.303 L -1066.31 928.943 C -1076.993 953.993 -1066.31 986.197 -1041.376 996.935 C -1036.761 998.312 -1033.164 998.79 -1030.637 998.995 C -1028.52 999.152 -1026.786 999.107 -1023.373 999.114 C -1002.001 999.114 -977.264 986.197 -970.139 964.727 L -888.215 778.652 C -838.35 868.11 -781.361 971.884 -781.361 975.464 C -770.677 993.354 -752.864 1004.089 -735.055 1004.089 C -727.934 1004.089 -717.246 1000.513 -710.124 996.935 C -685.19 982.618 -674.506 950.413 -688.753 925.364 C -692.315 918.209 -777.798 757.181 -834.787 660.565 L -784.923 549.637 L -767.114 581.841 C -763.552 592.578 -752.864 596.158 -745.743 599.733 L -635.325 642.674 C -631.763 642.674 -624.638 646.254 -621.075 646.254 C -603.266 646.254 -589.019 635.519 -581.894 617.628 C -578.335 596.158 -589.019 571.108 -610.391 563.95 M -781.361 363.563 C -738.617 363.563 -702.999 327.779 -702.999 284.839 C -702.999 241.897 -738.617 206.114 -781.361 206.114 C -824.104 206.114 -859.722 241.897 -859.722 284.839 C -859.722 327.779 -824.104 363.563 -781.361 363.563" p-id="1475" style="fill: rgb(255, 255, 255);"/>
  </g>
  <g id="SVGRepo_bgCarrier" stroke-width="0" transform="matrix(1, 0, 0, 1, 901.1702270507812, 348.8346862792969)"/>
  <g id="SVGRepo_tracerCarrier" stroke-linecap="round" stroke-linejoin="round" transform="matrix(1, 0, 0, 1, 901.1702270507812, 348.8346862792969)"/>
</svg>