<?xml version="1.0" encoding="utf-8"?>
<svg viewBox="0 0 1024 1024" width="1024px" height="1024px" xmlns="http://www.w3.org/2000/svg">
  <path d="M 732.372 563.95 L 636.201 528.166 L 575.649 417.237 C 572.365 412.171 571.192 410.48 568.289 407.023 L 561.402 399.346 C 536.468 374.295 500.851 370.717 468.795 385.034 L 301.387 442.288 C 287.136 445.863 276.453 460.179 272.891 474.492 L 258.644 606.89 C 255.081 628.361 272.891 649.832 294.262 653.412 L 297.824 653.412 C 319.197 653.412 337.005 639.095 337.005 617.628 L 347.69 513.854 L 411.805 492.383 C 401.117 517.434 390.432 542.478 383.307 560.374 C 369.062 592.578 369.062 635.519 386.87 671.303 L 276.453 928.943 C 265.77 953.993 276.453 986.197 301.387 996.935 C 306.002 998.312 309.599 998.79 312.126 998.995 C 314.243 999.152 315.977 999.107 319.39 999.114 C 340.762 999.114 365.499 986.197 372.624 964.727 L 454.548 778.652 C 504.413 868.11 561.402 971.884 561.402 975.464 C 572.086 993.354 589.899 1004.089 607.708 1004.089 C 614.829 1004.089 625.517 1000.513 632.639 996.935 C 657.573 982.618 668.257 950.413 654.01 925.364 C 650.448 918.209 564.965 757.181 507.976 660.565 L 557.84 549.637 L 575.649 581.841 C 579.211 592.578 589.899 596.158 597.02 599.733 L 707.438 642.674 C 711 642.674 718.125 646.254 721.688 646.254 C 739.497 646.254 753.744 635.519 760.869 617.628 C 764.428 596.158 753.744 571.108 732.372 563.95 M 561.402 363.563 C 604.146 363.563 639.764 327.779 639.764 284.839 C 639.764 241.897 604.146 206.114 561.402 206.114 C 518.659 206.114 483.041 241.897 483.041 284.839 C 483.041 327.779 518.659 363.563 561.402 363.563" fill="#ffffff" p-id="1475" style=""/>
  <g id="SVGRepo_bgCarrier" stroke-width="0" transform="matrix(1, 0, 0, 1, 901.1702270507812, 348.8346862792969)"/>
  <g id="SVGRepo_tracerCarrier" stroke-linecap="round" stroke-linejoin="round" transform="matrix(1, 0, 0, 1, 901.1702270507812, 348.8346862792969)"/>
</svg>