<?xml version="1.0" encoding="utf-8"?>
<svg viewBox="0 0 1024 1024" width="1024px" height="1024px" xmlns="http://www.w3.org/2000/svg">
  <g transform="matrix(0.9999999999999999, 0, 0, 0.9999999999999999, 9512.495117187498, 0)">
    <path d="M -8780.016 563.95 L -8876.187 528.166 L -8936.739 417.237 C -8940.023 412.171 -8941.196 410.48 -8944.099 407.023 L -8950.986 399.346 C -8975.92 374.295 -9011.537 370.717 -9043.593 385.034 L -9211.001 442.288 C -9225.252 445.863 -9235.935 460.179 -9239.497 474.492 L -9253.744 606.89 C -9257.307 628.361 -9239.497 649.832 -9218.126 653.412 L -9214.564 653.412 C -9193.191 653.412 -9175.383 639.095 -9175.383 617.628 L -9164.698 513.854 L -9100.583 492.383 C -9111.271 517.434 -9121.956 542.478 -9129.081 560.374 C -9143.326 592.578 -9143.326 635.519 -9125.518 671.303 L -9235.935 928.943 C -9246.618 953.993 -9235.935 986.197 -9211.001 996.935 C -9206.386 998.312 -9202.789 998.79 -9200.262 998.995 C -9198.145 999.152 -9196.411 999.107 -9192.998 999.114 C -9171.626 999.114 -9146.889 986.197 -9139.764 964.727 L -9057.84 778.652 C -9007.975 868.11 -8950.986 971.884 -8950.986 975.464 C -8940.302 993.354 -8922.489 1004.089 -8904.68 1004.089 C -8897.559 1004.089 -8886.871 1000.513 -8879.749 996.935 C -8854.815 982.618 -8844.131 950.413 -8858.378 925.364 C -8861.94 918.209 -8947.423 757.181 -9004.412 660.565 L -8954.548 549.637 L -8936.739 581.841 C -8933.177 592.578 -8922.489 596.158 -8915.368 599.733 L -8804.95 642.674 C -8801.388 642.674 -8794.263 646.254 -8790.7 646.254 C -8772.891 646.254 -8758.644 635.519 -8751.519 617.628 C -8747.96 596.158 -8758.644 571.108 -8780.016 563.95 M -8950.986 363.563 C -8908.242 363.563 -8872.624 327.779 -8872.624 284.839 C -8872.624 241.897 -8908.242 206.114 -8950.986 206.114 C -8993.729 206.114 -9029.347 241.897 -9029.347 284.839 C -9029.347 327.779 -8993.729 363.563 -8950.986 363.563" fill="#ffffff" p-id="1475" style=""/>
    <path d="M -8925.552 213.295 C -8923.984 219.287 -8918.04 230.674 -8916.526 245.782 C -8917.408 256.011 -8919.556 258.995 -8919.556 266.207 C -8919.556 269.898 -8918.041 271.294 -8916.447 271.294 C -8914.887 271.294 -8913.275 269.713 -8913.275 265.825 C -8913.275 258.255 -8915.539 255.951 -8916.388 245.545 C -8915.523 234.359 -8908.403 239.403 -8908.403 245.915 C -8908.403 230.851 -8894.764 234.527 -8892.887 241.265 C -8893.578 245.961 -8894.897 247.41 -8894.897 251.344 C -8894.897 253.568 -8893.759 255.203 -8892.658 255.203 C -8891.533 255.203 -8890.464 253.675 -8890.464 251.563 C -8890.464 247.825 -8891.708 246.071 -8892.405 241.423 C -8890.339 236.384 -8876.953 236.798 -8876.913 241.188 C -8877.369 244.721 -8878.62 245.485 -8878.62 248.03 C -8878.62 249.329 -8877.74 250.284 -8876.889 250.284 C -8876.019 250.284 -8875.193 249.391 -8875.193 248.157 C -8875.193 245.692 -8876.418 244.702 -8876.877 241.089 C -8874.987 234.515 -8865.301 238.433 -8864.573 231.288 C -8871.423 237.427 -8912.337 234.866 -8925.552 213.295 Z M -8908.321 248.896 C -8908.947 253.149 -8910.68 254.282 -8910.68 257.15 C -8910.68 258.573 -8909.531 259.603 -8908.321 259.603 C -8907.138 259.603 -8905.916 258.501 -8905.916 257.002 C -8905.916 254.015 -8907.716 253.157 -8908.321 248.896 Z" style="fill: rgb(218, 85, 85);"/>
    <path d="M -8812.213 274.767 L -8888.243 187.108 L -8866.021 154.665 C -8835.39 177.736 -8804.3 214.976 -8779.644 254.939 L -8812.214 274.768 L -8812.213 274.767 Z M -8809.121 264.588 C -8808.219 264.579 -8807.489 264.313 -8806.896 263.911 C -8805.712 263.106 -8804.714 261.399 -8804.714 258.36 C -8804.714 252.284 -8809.612 244.459 -8814.766 242.049 C -8817.343 240.844 -8819.069 241.085 -8820.253 241.889 C -8821.437 242.695 -8822.446 244.401 -8822.446 247.44 C -8822.446 253.517 -8817.538 261.342 -8812.383 263.752 C -8811.094 264.354 -8810.022 264.599 -8809.121 264.588 Z M -8774.231 251.645 C -8799.272 211.045 -8830.748 173.225 -8862.441 149.432 L -8848.026 128.375 C -8816.177 151.477 -8773.695 197.045 -8752.591 238.479 L -8774.231 251.645 Z M -8893.327 183.316 C -8899.371 177.513 -8905.422 172.228 -8911.482 167.438 L -8929.727 153.697 L -8948.616 141.157 L -8934.615 126.064 C -8928.596 128.95 -8892.025 152.152 -8881.74 166.401 L -8893.327 183.316 Z" style="fill: rgb(255, 255, 255); transform-origin: -8850.6px 200.416px;" transform="matrix(-1, 0, 0, -1, -0.00075, 0.000009)"/>
  </g>
  <g id="SVGRepo_bgCarrier" stroke-width="0" transform="matrix(0.9999999999999999, 0, 0, 0.9999999999999999, 901.1702270507812, 348.8346862792969)"/>
  <g id="SVGRepo_tracerCarrier" stroke-linecap="round" stroke-linejoin="round" transform="matrix(0.9999999999999999, 0, 0, 0.9999999999999999, 901.1702270507812, 348.8346862792969)"/>
</svg>