<?xml version="1.0" encoding="utf-8"?>
<svg viewBox="0 0 1024 1024" width="1024px" height="1024px" xmlns="http://www.w3.org/2000/svg">
  <g transform="matrix(1, 0, 0, 1, 6059.17578125, 0)">
    <path d="M -5605.007 27.678 L -5564.405 89.876 L -5594.929 116.397 L -5549.534 170.532 L -5556.531 198.728 L -5541.921 220.549 C -5545.195 222.838 -5548.279 225.376 -5551.155 228.136 L -5581.133 191.076 L -5567.181 184.1 L -5611.547 109.068 L -5620.108 147.306 L -5592.179 180.03 L -5600.317 194.563 L -5584.727 209.992 L -5596.062 227.264 L -5568.208 252.332 C -5569.124 254.376 -5569.96 256.466 -5570.702 258.601 L -5424.546 258.601 C -5425.433 256.046 -5426.452 253.555 -5427.589 251.13 L -5398.084 220.953 L -5421.71 193.878 L -5420.599 189.329 L -5412.466 172.815 L -5394.548 186.252 L -5343.145 118.713 L -5381.592 124.907 L -5402.502 161.303 L -5419.047 146.67 L -5435.385 213.583 L -5453.249 220.591 C -5457.803 217.401 -5462.72 214.692 -5467.928 212.534 L -5433.403 164.214 L -5444.309 145.932 L -5421.974 112.597 L -5465.188 116.055 L -5444.068 79.362 L -5428.442 93.731 L -5390.192 35.436 L -5406.548 39.712 L -5430.446 80.189 L -5446.162 65.738 L -5475.603 116.886 L -5487.362 117.828 L -5428.055 6.507 L -5505.209 21.195 L -5529.716 152.707 L -5490.146 142.155 L -5503.196 164.828 L -5527.938 172.2 L -5524.423 211.407 C -5527.943 212.702 -5531.337 214.245 -5534.591 216.015 L -5547.254 197.103 L -5540.121 168.356 L -5543.182 164.704 L -5570.47 117.433 L -5530.961 96.466 L -5555.78 30.621 L -5605.007 27.678 Z M -5464.975 135.441 L -5504.602 206.977 C -5508.496 207.322 -5512.306 207.95 -5516.007 208.847 L -5518.733 178.44 L -5497.448 172.098 L -5478.411 139.024 L -5464.976 135.441 L -5464.975 135.441 Z M -5449.615 153.848 L -5443.684 163.79 L -5476.411 209.589 C -5479.41 208.742 -5482.485 208.071 -5485.623 207.587 L -5449.616 153.848 L -5449.615 153.848 Z M -5424.209 204.112 L -5409.804 220.621 L -5431.883 243.206 C -5435.658 237.121 -5440.244 231.6 -5445.5 226.802 L -5428.081 219.965 L -5424.209 204.112 Z M -5578.484 216.174 L -5558.365 236.084 C -5560.453 238.734 -5562.372 241.523 -5564.106 244.438 L -5584.809 225.809 L -5578.484 216.174 Z" style="fill: rgb(255, 255, 255);"/>
    <path d="M -5326.764 563.95 L -5422.935 528.166 L -5483.487 417.237 C -5486.771 412.171 -5487.944 410.48 -5490.847 407.023 L -5497.734 399.346 C -5522.668 374.295 -5558.285 370.717 -5590.341 385.034 L -5757.749 442.288 C -5772 445.863 -5782.683 460.179 -5786.245 474.492 L -5800.492 606.89 C -5804.055 628.361 -5786.245 649.832 -5764.874 653.412 L -5761.312 653.412 C -5739.939 653.412 -5722.131 639.095 -5722.131 617.628 L -5711.446 513.854 L -5647.331 492.383 C -5658.019 517.434 -5668.704 542.478 -5675.829 560.374 C -5690.074 592.578 -5690.074 635.519 -5672.266 671.303 L -5782.683 928.943 C -5793.366 953.993 -5782.683 986.197 -5757.749 996.935 C -5753.134 998.312 -5749.537 998.79 -5747.01 998.995 C -5744.893 999.152 -5743.159 999.107 -5739.746 999.114 C -5718.374 999.114 -5693.637 986.197 -5686.512 964.727 L -5604.588 778.652 C -5554.723 868.11 -5497.734 971.884 -5497.734 975.464 C -5487.05 993.354 -5469.237 1004.089 -5451.428 1004.089 C -5444.307 1004.089 -5433.619 1000.513 -5426.497 996.935 C -5401.563 982.618 -5390.879 950.413 -5405.126 925.364 C -5408.688 918.209 -5494.171 757.181 -5551.16 660.565 L -5501.296 549.637 L -5483.487 581.841 C -5479.925 592.578 -5469.237 596.158 -5462.116 599.733 L -5351.698 642.674 C -5348.136 642.674 -5341.011 646.254 -5337.448 646.254 C -5319.639 646.254 -5305.392 635.519 -5298.267 617.628 C -5294.708 596.158 -5305.392 571.108 -5326.764 563.95 M -5497.734 363.563 C -5454.99 363.563 -5419.372 327.779 -5419.372 284.839 C -5419.372 241.897 -5454.99 206.114 -5497.734 206.114 C -5540.477 206.114 -5576.095 241.897 -5576.095 284.839 C -5576.095 327.779 -5540.477 363.563 -5497.734 363.563" fill="#ffffff" p-id="1475" style=""/>
  </g>
  <g id="SVGRepo_bgCarrier" stroke-width="0" transform="matrix(1, 0, 0, 1, 901.1702270507812, 348.8346862792969)"/>
  <g id="SVGRepo_tracerCarrier" stroke-linecap="round" stroke-linejoin="round" transform="matrix(1, 0, 0, 1, 901.1702270507812, 348.8346862792969)"/>
</svg>